<?xml version="1.0" encoding="UTF-8"?> <svg xmlns="http://www.w3.org/2000/svg" width="1880" height="163" viewBox="0 0 1880 163" fill="none"> <g filter="url(#filter0_d_1157_1185)"> <path d="M29.0001 93.982L117.185 93.982L193.267 104.344L284.913 102.613L365.982 92.5496L400.591 80.1638L511.424 78.439L542.546 88.801L661.854 111.25L1075.11 90.526L1173.63 85.1205L1379.43 92.2509L1517.76 111.25L1678.57 99.1632L1829 99.1632L1829 40.0003L29 40L29.0001 93.982Z" fill="#202020"></path> <path d="M1829 87.6051C1823.71 86.6869 1807.43 87.2632 1812.04 87.6051C1811.94 88.5804 1800.98 87.9218 1789.34 88.7007C1777.69 90.2522 1765.36 85.9523 1762.5 88.4664C1754.67 90.0559 1747.03 84.5654 1739.39 87.2442C1731.75 88.897 1724.12 87.1175 1716.29 86.0156C1702.51 86.1169 1687.99 79.8601 1674.24 85.9459C1666.25 87.2568 1659.83 85.6673 1651.68 87.3265C1642.37 88.0104 1632.71 82.3299 1623.47 84.6287C1619.08 80.8607 1617.39 85.2746 1612.7 87.3328C1609.55 87.6367 1606.15 92.3356 1603.02 87.1808C1598.09 90.5625 1594 90.1255 1588.85 89.7582C1583.34 88.2637 1577.01 92.019 1571.4 89.7012C1566.49 91.6834 1560.94 90.0432 1556.18 89.6379C1555.14 90.1128 1553.96 89.9229 1553.57 90.6321C1547.03 87.9724 1540.45 94.8307 1534.06 93.4122C1523.6 93.8745 1512.95 94.3748 1502.46 93.3869C1492.79 91.316 1483 94.2988 1473.36 93.3425C1465.42 90.1825 1458.18 96.1606 1450.45 95.5843C1444.79 96.5342 1440.61 97.5158 1436.4 94.4191C1432.76 90.1255 1429.9 93.9948 1425.52 90.1508C1417.66 88.9793 1411.39 84.1474 1402.46 85.9965C1391.26 81.9752 1382.15 78.3529 1370.81 83.5521C1364.55 83.4634 1359.81 84.3753 1353.9 84.8123C1346.81 82.5388 1343.43 81.5889 1336.72 82.6338C1324.64 80.0627 1314.27 78.0996 1301.76 78.7075C1294.64 75.4018 1288.61 72.1848 1281.24 76.1364C1278.72 75.0535 1273.1 76.529 1271.01 76.3327C1269.47 78.2959 1269.52 79.2268 1268.07 79.3914C1263.5 81.6206 1247.55 80.3224 1242.62 79.6321C1236.72 77.7513 1231.73 78.1502 1225.79 77.3903C1219.56 75.4652 1213.14 80.6707 1206.9 77.422C1202.28 74.8382 1192.77 77.156 1188.05 77.3333C1183.01 76.4214 1180.87 83.8244 1174.87 79.9424C1170.2 79.2331 1165.5 80.1007 1160.83 79.8221C1152.76 80.5123 1145.46 85.0783 1137.34 81.114C1130.16 82.3932 1122.98 84.236 1115.8 81.1139C1110.13 84.7869 1106.32 80.734 1101.74 82.2855C1098.66 82.9504 1096.46 89.1122 1093.1 86.0281C1089.05 88.3522 1084.15 88.6245 1080.06 87.529C1078.9 88.0609 1077.78 84.0523 1076.21 88.5359C1073.53 88.2573 1069.63 88.4346 1066.87 88.4916C1056.17 90.4674 1045.46 85.9711 1034.75 88.4916C1028.33 88.6119 1021.72 88.6752 1015.31 88.5232C1011.23 86.0598 1008.92 85.1352 1005.14 86.6171C1002.78 85.5215 999.615 89.5111 997.454 85.8318C995.611 85.0022 994.751 85.1542 993.198 83.5204C988.78 84.6286 983.554 83.6597 978.185 82.3615C974.919 83.2924 972.273 83.685 969.123 82.6274C968.987 83.6723 967.655 82.4881 966.982 83.647C960.456 85.8698 950.792 84.0206 943.722 83.5837C932.189 82.2728 920.3 83.7673 908.793 83.647C904.42 84.2676 900.565 83.723 896.257 82.3108C892.913 81.2975 889.362 78.9797 886.005 82.3551C880.617 86.3511 874.899 80.8352 869.575 82.2664C862.04 81.5065 856.322 84.3499 848.404 84.8122C841.011 84.3246 838.003 87.7316 831.489 87.3516C824.458 86.5031 817.304 85.8001 810.247 86.0281C804.141 83.9003 797.977 84.0016 791.871 86.0408C785.073 87.8519 778.274 86.0407 771.483 86.0724C764.626 84.5652 758.468 81.7345 751.625 84.7109C749.62 83.1277 747.647 83.419 745.706 85.0275C745.131 86.3891 744.367 85.5974 743.416 86.5537C740.053 85.9014 737.647 86.332 733.74 87.2946C727.951 85.9711 723.669 87.5606 718.235 88.2255C708.526 90.404 697.194 88.5675 687.213 88.3839C678.248 88.7195 681.32 87.5353 676.087 91.9745C673.241 95.0712 673.908 91.4552 670.473 93.4817C665.518 92.1265 659.58 94.552 654.522 93.4121C645.195 95.1916 635.861 93.0891 626.533 93.4121C615.667 95.8628 605.071 88.5295 594.567 90.613C585.628 89.2958 577.063 84.7868 568.085 85.0528C561.662 83.8496 558.512 87.2439 553.008 81.7978C548.234 79.7333 543.118 73.4639 536.934 76.0603C527.697 76.3389 517.238 76.1743 507.859 76.2123C497.554 76.3073 483.214 78.7011 474.055 75.0471C463.537 74.7621 452.878 73.6665 441.746 73.7552C432.263 77.3522 422.515 72.1023 412.334 74.9837C408.104 72.7546 403.201 78.9417 399.029 74.933C392.405 79.3596 391.952 81.3608 389.759 81.0188C384.733 86.9526 382.398 81.2151 378.078 84.3308C373.938 88.2445 370.988 87.5225 366.926 84.7614C364.151 88.1685 362.081 87.5922 359.352 86.104C356.02 79.3026 351.622 90.2773 348.187 86.0407C340.432 88.9411 332.676 85.838 324.921 86.0407C319.326 85.2997 307.488 86.3067 302.572 86.0913C299.332 88.4851 299.798 92.9307 297.786 89.7896C295.8 87.8202 293.84 95.6348 290.664 92.1898C284.099 94.8052 277.747 101.17 271.673 94.7419C265.25 96.4327 257.553 93.9313 249.745 97.3826C241.938 93.526 234.021 94.4822 227.158 96.534C217.772 98.1805 212.074 88.0101 202.21 90.9232C190.275 89.0487 177.669 92.9307 165.825 91.0118C157.254 85.3947 148.16 85.9203 139.654 88.2128C136.142 89.9036 133.981 87.7695 131.012 86.0343C126.536 82.0067 122.422 82.1017 117.047 83.5202C108.768 84.1472 99.7249 80.9871 91.439 83.6025C82.959 81.994 78.6963 84.4638 70.0611 79.8345C66.9239 81.69 60.8954 77.6751 58.1399 79.8029C54.3236 79.2266 52.8941 83.1402 48.3921 82.4436C42.396 83.2669 35.0738 83.4252 29 82.3486C29 82.3486 29 100.533 29 102.395C33.5537 104.396 40.2679 105.318 46.7944 106.939C51.0765 106.717 55.365 106.331 59.6535 106.92C66.0248 106.888 75.6109 107.591 80.8891 106.198C83.1854 103.12 83.9228 104.545 86.7947 103.836C90.1518 99.0417 93.1272 101.524 96.7366 103.221C102.61 103.924 106.096 105.052 111.109 105.071C115.592 106.242 117.08 110.023 122.364 106.692C124.208 110.954 122.325 111.378 122.241 111.745C127.765 110.941 133.981 114.563 139.88 112.721C145.003 112.309 149.324 114.297 154.687 114.316C167.966 118.819 181.841 115.444 194.687 113.335C205.366 106.856 218.206 112.822 229.118 113.062C240.211 113.119 249.034 114.152 260.043 109.314C269.655 105.045 281.854 110.333 290.936 109.168C293.86 106.704 293.53 112.265 295.444 107.16C297.876 103.513 300.988 107.021 303.594 106.312C306.046 103.836 308.53 104.71 310.968 105.394C313.95 110.491 318.769 106.261 321.247 104.532C325.296 103.076 326.001 98.3262 331.499 101.955C336.518 105.318 341.577 105.311 346.603 102.044C351.628 102.702 351.978 99.0102 355.846 100.017C359.889 97.294 367.838 96.9203 372.67 96.0781C377.327 96.1794 381.26 97.1357 385.852 94.6659C392.043 94.4759 398.679 94.0073 404.236 90.062C408.013 91.6578 410.756 84.6095 414.598 84.9704C419.798 83.3366 430.167 85.9204 435.445 84.8185C443.751 85.3758 448.958 82.241 456.383 86.6993C458.79 93.4373 461.092 87.7062 463.447 87.9722C466.008 89.7327 467.399 87.5479 469.779 90.7206C474.644 91.6262 482.742 91.4362 488.331 93.1714C495.116 96.6227 502.865 93.7983 509.773 93.4184C513.628 93.9693 518.829 95.5335 522.6 93.241C530.556 94.5393 533.163 96.2871 536.908 101.822C539.049 102.93 542.561 108.041 546.099 107.92C548.641 109.485 553.9 106.793 556.837 109.32C562.943 109.801 569.062 115.501 575.11 112.885C579.069 115.551 585.919 111.448 589.884 113.126C594.916 111.758 598.305 109.884 603.888 110.523C608.241 111.017 614.211 110.112 618.454 110.827C620.718 113.62 622.646 115.805 625.097 112.866C628.733 109.675 632.271 110.96 635.854 113.341C640.169 118.914 644.916 112.645 649.574 115.425C654.606 111.207 660.518 118.876 665.66 115.532C670.395 118.547 675.124 120.054 679.858 115.532C687.148 117.255 693.338 116.444 700.395 114.247C707.614 112.632 717.724 110.675 724.943 114.557C729.943 116.375 734.865 118.686 739.93 117.071C746.288 117.831 752.045 118.996 758.171 119.908C763.21 121.434 779.6 121.131 784.523 120.276C783.695 112.74 799.84 115.716 806.341 116.774C817.874 117.274 828.165 116.007 839.782 118.002C850.041 118.192 857.447 122.188 867.357 121.435C874.666 121.004 886.121 123.911 893.502 121.593C901.393 121.169 908.534 121.422 916.639 117.014C926.044 119.009 934.078 118.901 943.347 118.008C950.345 117.489 957.351 118.939 964.343 117.996C967.622 117.591 970.915 120.067 974.13 117.787C977.144 116.799 979.828 116.039 982.797 115.773C984.647 114.665 986.924 115.57 988.709 115.33C992.927 114.893 996.031 113.766 1000.26 111.334C1003.88 109.016 1009.1 109.288 1013.14 109.339C1017.56 109.048 1020.66 110.264 1025.17 108.87C1031.55 107.319 1035.63 107.591 1041.14 103.81C1051.34 101.094 1065.49 102.417 1076.8 102.025C1088.02 99.3586 1096.7 102.196 1107.02 99.5232C1112.62 96.6861 1118.06 94.9193 1124.07 93.5894C1127.62 89.9671 1132.79 92.9688 1136.38 93.4501C1144.05 95.3056 1149.57 95.3816 1156.91 91.6896C1161.09 93.5324 1165.88 91.0817 1170.35 90.917C1171.69 88.6183 1173.23 89.3845 1174.52 91.1767C1175.4 92.3166 1175.97 91.2843 1177.35 93.2791C1181.07 91.449 1185.28 92.9942 1188.35 91.5376C1199.11 91.1577 1210.04 93.1462 1220.98 92.2279C1227.7 93.1652 1234.45 89.2769 1241.17 92.1963C1250.91 94.9954 1259.53 93.2348 1267.31 94.3177C1272.64 92.4876 1280.24 102.208 1286.88 99.3206C1295.66 96.7369 1303.99 99.5993 1312.35 100.796C1319.26 103.773 1326.58 105.381 1333.81 104.083C1341.37 107.034 1352.72 111.005 1362.14 109.352C1364.84 110.58 1365.27 106.603 1367.97 106.85C1371.16 105.47 1377.45 109.212 1381.11 106.939C1388.05 107.116 1397.63 113.43 1403.22 105.774C1408.13 104.438 1407.54 103.893 1414.7 103.165C1419.44 104.184 1423.78 104.608 1428.49 104.526C1431.6 103.298 1434.85 103.393 1437.98 104.488C1444.02 106.451 1446.73 101.664 1451.99 106.325C1459.48 105.451 1467.9 106.28 1475.94 110.688C1487.83 112.955 1501.17 118.927 1513.95 115.59C1522.94 114.551 1531.93 116.406 1540.92 115.495C1549.92 115.495 1558.91 113.696 1567.9 115.533C1575.8 119.528 1587.59 118.579 1594.89 114.811C1601.16 113.924 1605.19 110.96 1612.54 111.847C1621.12 106.914 1629.7 112.866 1638.27 111.847C1647.14 113.557 1658.79 114.196 1667.52 111.936C1672.1 110.948 1672.56 104.469 1676.24 108.351C1680.16 102.88 1686.91 109.409 1690.87 109.054C1703.18 106.42 1715.57 115.868 1727.76 114.336C1735.99 118.186 1742.57 118.604 1751.37 119.256C1763.16 119.149 1773.94 119.624 1785 116.451C1795.36 109.605 1804.3 113.284 1815.53 114.272C1820.19 110.118 1824.3 115.136 1829 112.844L1829 106.828L1829 100.812L1829 91.3126L1829 87.6051Z" fill="white"></path> </g> <defs> <filter id="filter0_d_1157_1185" x="0" y="0" width="1880" height="162.5" filterUnits="userSpaceOnUse" color-interpolation-filters="sRGB"> <feFlood flood-opacity="0" result="BackgroundImageFix"></feFlood> <feColorMatrix in="SourceAlpha" type="matrix" values="0 0 0 0 0 0 0 0 0 0 0 0 0 0 0 0 0 0 127 0" result="hardAlpha"></feColorMatrix> <feOffset dx="11"></feOffset> <feGaussianBlur stdDeviation="20"></feGaussianBlur> <feComposite in2="hardAlpha" operator="out"></feComposite> <feColorMatrix type="matrix" values="0 0 0 0 0 0 0 0 0 0 0 0 0 0 0 0 0 0 0.05 0"></feColorMatrix> <feBlend mode="normal" in2="BackgroundImageFix" result="effect1_dropShadow_1157_1185"></feBlend> <feBlend mode="normal" in="SourceGraphic" in2="effect1_dropShadow_1157_1185" result="shape"></feBlend> </filter> </defs> </svg> 