<?xml version="1.0" encoding="UTF-8"?> <svg xmlns="http://www.w3.org/2000/svg" width="2400" height="226" viewBox="0 0 2400 226" fill="none"> <path d="M59.4999 225.024H2198.71C2216.6 225.024 2400 225.024 2400 225.024C2400 225.024 2400 189.148 2400 180V104.19C2333.93 88.1083 2125.89 22.9198 2059.79 6.86159C2044.46 3.1338 2028.44 -0.665674 2011.99 0.0990003C1993.14 0.983155 1976.53 7.74575 1960.86 14.2694C1913.3 33.7925 1866.24 53.7696 1818.91 73.5078C1787.06 86.794 1743.26 117.859 1702.64 119.173C1694.65 119.436 1686.81 117.883 1679.25 116.258C1660.51 112.243 1642.08 107.703 1624.01 102.661C1621.17 101.872 1618.15 101.036 1615.05 101.251C1611.67 101.466 1608.84 102.852 1606.24 104.19C1585.48 114.776 1560.54 133.272 1534.24 137.788C1509.8 141.97 1475.19 138.123 1450.56 136.163C1264.07 121.324 1088.87 78.8844 910.187 44.9042C905.105 43.9483 899.867 42.9686 894.553 43.1597C890.014 43.327 885.708 44.3545 881.44 45.3582C816.071 60.9384 750.702 76.5426 685.372 92.1228C672.531 95.1815 659.38 98.288 645.608 98.6226C634.164 98.9093 622.836 97.2366 611.779 95.3249C577.718 89.3987 544.859 80.9633 514.056 70.2101C509.749 68.7047 505.288 67.1275 500.361 66.8169C494.464 66.4584 488.762 68.0117 483.369 69.4932C452.062 78.2153 420.755 86.9374 389.409 95.6594C383.745 97.2366 377.964 98.8376 371.796 99.2439C363.028 99.8174 354.416 97.9535 346.114 96.1135C315.505 89.327 284.896 82.5405 254.287 75.754C237.877 72.1218 220.885 68.4179 203.467 69.2543C179.414 70.4013 160.948 80.4137 140.037 86.3639C117.692 92.7202 95.8116 99.6023 73.9703 106.891C49.3357 115.135 24.7012 123.379 0.0278669 131.623V191.487C0.0278669 201.609 0.00118461 225.024 0.00937453 225.024C0.00937453 225.024 43.0344 225.024 59.3447 225.024H59.4999Z" fill="#F0F0F0"></path> <path d="M471.573 159.186C445.853 165.16 419.162 166.379 392.083 168.744C366.518 170.967 341.689 175.626 316.977 180.262C267.242 189.606 217.469 198.949 167.734 208.292C215.568 208.436 263.441 204.445 309.49 196.488C325.318 193.764 341.107 190.538 357.517 189.845C379.863 188.913 401.976 192.736 424.244 194.098C517.855 199.833 604.29 162.555 697.785 156.056C708.802 155.291 720.169 154.909 730.217 152.041C738.635 149.627 745.541 145.613 752.291 141.694C782.9 123.82 813.509 105.969 844.118 88.0951C862.933 77.1268 895.947 63.1237 915.461 48.7621C912.202 48.2603 908.905 47.9019 905.568 48.0213C901.029 48.1886 896.723 49.2161 892.456 50.2198C827.087 65.8 761.718 81.4042 696.388 96.9844C684.168 99.8997 671.715 102.815 658.68 103.389C623.066 114.62 589.043 127.906 552.926 138.587C526.507 146.402 499.04 152.806 471.612 159.186H471.573Z" fill="white"></path> <path d="M1692.6 150.961C1674.63 159.274 1653.63 164.406 1632.91 169.453C1612.21 174.501 1591.02 179.612 1568.87 180.036C1560.93 180.184 1552.62 179.781 1545.3 181.775C1539.94 183.238 1535.6 185.889 1530.93 188.158C1496.47 204.89 1447.33 199.674 1406.57 208.983C1412.17 215.621 1425.51 217.933 1437.27 217.466C1449.02 217 1460.41 214.434 1472.2 214.137C1494.31 213.585 1516.33 221.029 1537.92 217.912C1560.47 214.667 1579.7 200.289 1602.18 203.724C1609.47 204.848 1615.86 207.775 1623.21 208.644C1636.75 210.235 1649.46 204.551 1660.55 199.355C1715.38 173.652 1776.34 151.957 1842.98 143.411C1849.61 142.563 1856.43 141.799 1862.15 139.53C1867.88 137.24 1872.29 132.998 1871.06 128.757C1869.8 124.515 1861.13 121.525 1855.8 124.155C1860.3 116.266 1874.57 113.148 1886.23 109.31C1905.73 102.926 1921.52 92.0048 1930.03 79.0684C1931.39 76.9901 1932.35 74.2544 1929.7 72.7911C1925.72 70.6067 1917.91 73.6818 1915.03 70.9036C1913.31 69.2283 1969.03 33.1973 1974.36 29.4861C1978.47 26.6231 1996.28 15.659 2007.14 6.77319C1996.54 9.1696 1986.74 13.3262 1977.31 17.4192C1936.72 34.7454 1896.56 52.4746 1856.16 69.9917C1828.98 81.7829 1791.6 109.352 1756.93 110.519C1756.07 110.54 1755.18 110.54 1754.32 110.519C1749.39 113.891 1744.52 117.284 1739.72 120.74C1724.95 131.386 1710.71 142.563 1692.67 150.897L1692.6 150.961Z" fill="white"></path> <path d="M1478.64 155.172C1470.88 157.466 1463.59 160.31 1455.75 162.556C1447.22 164.993 1438.18 166.666 1429.14 168.339C1421.5 169.749 1413.89 171.159 1406.25 172.544C1415.83 173.859 1425.65 171.684 1435.38 171.278C1442.06 170.991 1448.89 171.541 1455.44 170.681C1460.83 169.964 1465.8 168.315 1470.92 167.048C1484.54 163.751 1499.59 163.249 1513.17 159.951C1524.92 157.084 1535.28 152.185 1547.42 150.082C1552.58 149.198 1558.09 148.792 1562.63 147.071C1568.06 145.016 1571.32 141.408 1575.32 138.349C1579.97 134.789 1585.79 131.873 1591.3 128.815C1599.95 124.035 1607.98 118.826 1615.28 113.282C1617.1 111.896 1618.81 109.865 1621.06 108.766C1622.37 108.121 1624.62 107.977 1625.71 107.332C1626.29 106.998 1626.76 106.591 1627.19 106.185C1626.76 106.185 1626.33 106.137 1625.9 106.185C1622.53 106.4 1619.7 107.786 1617.1 109.124C1596.34 119.71 1571.4 138.206 1545.1 142.722C1536.83 144.132 1527.41 144.61 1517.59 144.586C1510.65 146.737 1503.66 148.792 1496.45 150.632C1490.47 152.137 1484.38 153.523 1478.52 155.244L1478.64 155.172Z" fill="white"></path> <path d="M324.774 115.815C309.411 119.519 291.953 116.986 275.698 118.921C261.926 120.546 249.435 125.349 235.546 126.425C227.632 127.046 219.602 126.425 211.61 126.425C193.842 126.425 176.152 129.627 161.177 135.505C165.444 137.823 169.712 140.165 174.018 142.483C163.621 149.628 146.125 150.058 130.646 151.205C115.826 152.304 101.278 154.55 86.8077 156.797C72.8029 158.971 58.8369 161.122 44.832 163.296C62.7551 163.153 80.717 162.986 98.6401 162.842C116.486 162.699 134.409 162.532 151.905 160.477C174.483 157.824 195.743 152.089 217.895 148.314C245.555 143.606 274.302 142.005 302.893 140.404C301.768 139.066 300.643 137.752 299.518 136.413C327.761 129.603 356.779 124.011 386.302 119.686C393.673 118.611 401.16 117.583 407.755 115.289C416.95 112.087 424.437 106.472 434.911 105.611C438.054 105.348 441.351 105.54 444.222 104.703C447.093 103.867 448.994 101.382 446.821 99.9718C461.447 93.8544 476.072 87.737 490.698 81.5957C492.909 80.6638 495.082 79.7557 497.293 78.8238C502.569 76.6253 507.768 74.3552 513.121 72.2046C513.315 72.1329 513.509 72.0612 513.703 71.9895C512.927 71.87 512.19 71.7505 511.375 71.7027C505.479 71.3443 499.776 72.8976 494.383 74.3791C463.076 83.1012 431.769 91.8233 400.423 100.545C394.759 102.122 388.979 103.724 382.81 104.13C380.483 104.273 378.194 104.249 375.905 104.13C366.361 105.635 356.352 106.041 347.274 108.407C339.399 110.462 332.649 113.927 324.696 115.839L324.774 115.815Z" fill="white"></path> </svg> 