<?xml version="1.0" encoding="UTF-8"?> <svg xmlns="http://www.w3.org/2000/svg" width="571" height="657" viewBox="0 0 571 657" fill="none"> <g clip-path="url(#clip0_1199_1083)"> <path d="M177.576 416.854C177.576 416.854 176.303 424.514 177.576 427.569C178.848 430.624 184.712 432.926 184.712 432.926C184.712 432.926 189.691 442.368 187.999 451.589C185.598 464.617 182.278 468.779 177.542 473.284C170.594 479.903 163.103 484.906 158.655 489.522C154.439 493.894 149.637 502.328 149.637 502.328C149.637 502.328 150.069 484.53 147.734 463.798C145.4 443.066 144.669 415.493 151.22 397.794C158.6 377.848 180.043 363.049 202.549 362.008C220.385 361.178 231.273 365.594 240.545 376.586C249.817 387.577 251.156 409.726 238.476 417.74C229.248 423.562 205.669 423.761 197.359 411.519C189.05 399.277 198.477 388.817 198.477 388.817C198.477 388.817 187.6 400.672 193.797 414.718C200.336 429.55 217.984 430.17 227.455 428.455C236.661 426.794 255.504 413.877 247.383 387.079C236.207 350.231 189.946 355.367 178.848 357.636C165.559 360.359 157.261 366.391 150.6 373.365C143.474 380.825 140.299 388.917 139.535 388.662C138.772 388.407 125.804 368.162 127.331 344.951C128.858 321.739 142.113 308.224 160.481 300.576C178.848 292.927 195.855 298.727 203.777 307.737C208.944 313.604 216.966 340.125 191.838 344.453C170.251 348.172 157.748 335.299 157.67 326.853C157.615 320.179 163.28 317.412 163.28 317.412C163.28 317.412 154.119 320.965 156.143 333.484C158.168 346.002 173.482 352.356 182.145 352.356C190.809 352.356 205.525 350.341 209.176 332.974C212.839 315.53 204.585 303.575 191.075 297.742C177.565 291.909 152.492 292.872 135.463 309.364C119.652 324.673 116.62 341.818 117.561 359.584C118.346 374.427 123.403 394.318 123.403 394.318C123.403 394.318 118.933 385.762 108.222 378.622C97.5115 371.483 69.5178 360.326 52.2458 350.452C37.1093 341.796 21.0434 323.178 19.7488 311.545C18.3879 299.369 27.3945 292.673 30.7139 290.636C34.0333 288.599 37.8507 287.57 37.8507 287.57C37.8507 287.57 14.6148 290.691 19.7378 319.448C24.1415 344.154 60.2014 363.104 77.6283 371.228C92.9418 378.357 105.423 387.046 115.104 401.834C124.797 416.622 122.75 433.967 122.75 441.117C122.75 448.268 122.241 467.129 121.478 475.553C120.714 483.976 123.005 509.988 123.005 509.988C123.005 509.988 116.886 496.473 102.358 487.795C87.8299 479.117 68.1901 472.232 50.0882 461.783C31.9864 451.334 24.0862 441.128 23.5772 430.159C23.0682 419.19 28.1691 414.851 30.205 413.323C32.2409 411.796 35.8148 409.748 35.8148 409.748C35.8148 409.748 19.7488 413.833 21.5413 440.863C23.3338 467.893 51.6262 475.298 70.237 484.474C88.8479 493.65 103.984 501.033 115.115 519.928C122.252 532.048 122.761 577.962 122.252 585.356C121.743 592.75 120.902 627.296 105.201 627.296" stroke="white" stroke-linecap="round" stroke-linejoin="round"></path> <path d="M69.5821 262.012C54.3681 262.145 45.0627 252.227 45.0627 252.227C45.0627 252.227 40.2164 261.702 29.1627 257.119C19.4922 253.112 20.0344 243.372 21.5834 237.472C23.1325 231.572 29.384 227.067 36.8306 226.569C39.6189 226.381 71.8504 226.99 71.8504 226.99C99.0363 226.99 107.623 226.946 111.141 227.831C116.286 229.115 123.036 234.716 123.002 243.959C122.969 253.201 114.328 263.03 104.513 262.001C94.699 260.971 93.7585 253.013 93.7585 253.013C93.7585 253.013 89.6756 261.824 69.571 262.001L69.5821 262.012Z" stroke="white" stroke-linecap="round" stroke-linejoin="round"></path> <path d="M100.235 253.035C100.235 253.035 103.378 256.765 107.383 253.898C111.001 251.319 108.124 245.63 104.384 244.446C99.8701 243.029 94.039 244.833 93.7734 253.024" stroke="white" stroke-linecap="round" stroke-linejoin="round"></path> <path d="M40.7057 250.998C40.7057 250.998 37.2757 254.972 33.3809 251.706C30.2828 249.105 31.5773 242.409 36.8331 241.7C41.436 241.08 47.6765 244.379 45.0541 252.238" stroke="white" stroke-linecap="round" stroke-linejoin="round"></path> <path d="M146.66 451.954C146.66 451.954 147.501 443.165 150.632 438.66C152.767 435.583 154.438 432.705 156.629 431.045C161.254 427.558 162.969 425.134 164.064 421.371C165.802 415.416 162.626 409.162 162.626 409.162C162.626 409.162 162.803 413.379 160.413 416.069C158.023 418.758 157.204 419.965 156.463 423.02C155.866 425.499 155.843 428.942 155.843 429.993C155.843 431.045 149.514 437.741 147.866 443.685C146.217 449.629 146.649 451.943 146.649 451.943L146.66 451.954Z" stroke="white" stroke-linecap="round" stroke-linejoin="round"></path> <path d="M172.96 453.414C172.96 453.414 167.262 457.975 165.47 463.354C163.323 469.807 165.149 475.01 165.149 475.01C165.149 475.01 163.279 479.736 161.973 482.835C160.668 485.935 157.315 490.329 155.611 491.967C153.907 493.606 149.691 498.166 149.691 498.166V499.793C149.691 499.793 158.045 489.997 160.502 486.344C163.19 482.348 165.957 475.01 165.957 475.01C165.957 475.01 169.619 473.46 171.323 467.129C172.54 462.624 171.079 457.399 172.96 453.403V453.414Z" stroke="white" stroke-linecap="round" stroke-linejoin="round"></path> <path d="M122.21 453.414C122.21 453.414 121.513 444.626 118.946 440.121C117.187 437.043 114.952 433.679 113.148 432.018C109.342 428.532 108.302 426.683 107.892 422.831C107.195 416.278 112.086 410.622 112.086 410.622C112.086 410.622 110.094 413.932 110.99 417.031C111.887 420.13 114.443 421.746 114.952 425.576C115.283 428.078 114.642 430.402 114.642 431.454C114.642 432.505 119.842 439.202 121.203 445.146C122.564 451.09 122.199 453.403 122.199 453.403L122.21 453.414Z" stroke="white" stroke-linecap="round" stroke-linejoin="round"></path> <path d="M127.641 340.137C131.901 347.73 136.924 355.689 139.104 364.212C141.029 371.716 140.221 380.173 138.805 387.722" stroke="white" stroke-linecap="round" stroke-linejoin="round"></path> <path d="M125.107 322.425C116.355 308.511 108.311 284.281 123.989 272.039C130.042 267.313 138.927 264.202 146.606 265.907C155.059 267.778 159.286 276.389 155.557 284.27C151.828 292.151 137.599 294.111 136.083 283.529C137.012 293.756 150.545 298.184 156.619 289.428C162.428 281.525 159.109 271.563 151.363 267.136C132.553 258.281 112.637 275.991 111.53 294.808C110.424 306.984 115.071 320.023 121.533 329.83" stroke="white" stroke-linecap="round" stroke-linejoin="round"></path> <path d="M148.699 375.478C150.668 357.923 139.604 343.39 130.121 329.819" stroke="white" stroke-linecap="round" stroke-linejoin="round"></path> <path d="M197.184 356.113C197.184 356.113 218.406 357.596 227.534 348.807C236.662 340.019 230.61 328.717 230.61 328.717C230.61 328.717 236.884 340.129 233.122 347.557C229.581 354.541 220.342 355.847 216.58 356.323C212.818 356.799 197.184 356.113 197.184 356.113Z" stroke="white" stroke-linecap="round" stroke-linejoin="round"></path> <path d="M226.406 362.185C226.406 362.185 242.604 370.188 252.983 360.027C261.713 351.482 254.233 341.608 254.233 341.608C254.233 341.608 261.768 345.981 259.135 356.142C256.048 368.085 238.134 366.989 233.122 364.931C231.197 364.145 226.395 362.174 226.395 362.174L226.406 362.185Z" stroke="white" stroke-linecap="round" stroke-linejoin="round"></path> <path d="M242.637 376.552C242.637 376.552 252.141 387.267 260.595 383.049C269.048 378.832 267.355 369.047 267.355 369.047C267.355 369.047 270.431 377.98 266.105 382.972C261.447 388.34 253.89 386.99 250.382 384.632C248.036 383.061 242.637 376.552 242.637 376.552Z" stroke="white" stroke-linecap="round" stroke-linejoin="round"></path> <path d="M98.2202 372.989C98.2202 372.989 97.1469 295.96 96.2617 258.149" stroke="white" stroke-linecap="round" stroke-linejoin="round"></path> <path d="M101.793 487.418L98.2188 383.426" stroke="white" stroke-linecap="round" stroke-linejoin="round"></path> <path d="M42.0312 691.063C42.0312 699.188 55.5855 701.911 64.4373 701.911C79.9278 703.018 108.265 700.682 107.424 692.857C104.823 628.259 103.739 568.044 101.736 504.088" stroke="white" stroke-linecap="round" stroke-linejoin="round"></path> <path d="M42.5402 471.191C42.5402 491.171 42.3632 618.695 42.0312 691.064" stroke="white" stroke-linecap="round" stroke-linejoin="round"></path> <path d="M42.543 350.574V456.99" stroke="white" stroke-linecap="round" stroke-linejoin="round"></path> <path d="M42.9611 254.972C42.939 282.666 42.9611 315.563 43.0496 344.043" stroke="white" stroke-linecap="round" stroke-linejoin="round"></path> <path d="M43.5035 201.189C43.5035 201.189 43.6031 203.258 41.3348 203.303C38.6129 203.358 36.7983 199.207 39.8079 196.894C43.2379 194.248 48.5822 197.171 47.6749 206.413" stroke="white" stroke-linecap="round" stroke-linejoin="round"></path> <path d="M57.7661 159.613C57.7661 159.613 57.7661 162.148 55.2322 162.071C52.5103 161.993 50.5519 157.909 53.4619 155.452C56.6485 152.762 63.7631 155.297 60.5765 165.557" stroke="white" stroke-linecap="round" stroke-linejoin="round"></path> <path d="M77.2737 123.308C77.2737 123.308 76.7758 126.042 74.0539 125.466C71.1328 124.846 69.8272 120.065 73.4453 117.995C77.4176 115.715 84.5875 119.843 79.1436 130.281" stroke="white" stroke-linecap="round" stroke-linejoin="round"></path> <path d="M106.263 88.2086C106.263 88.2086 105.422 91.1086 102.036 90.0239C99.1923 89.1051 99.0152 84.589 102.644 82.8955C106.794 80.9584 114.45 86.8582 106.063 95.3701" stroke="white" stroke-linecap="round" stroke-linejoin="round"></path> <path d="M142.224 57.7909C142.224 57.7909 140.929 60.5249 137.765 58.92C135.098 57.5695 135.629 53.0756 139.48 51.9687C143.872 50.7068 150.511 57.7356 140.907 64.8307" stroke="white" stroke-linecap="round" stroke-linejoin="round"></path> <path d="M225.852 18.5187C225.852 18.5187 225.012 21.4188 221.626 20.334C218.782 19.4153 218.605 14.8881 222.234 13.2057C229.349 9.90714 235.789 22.7803 222.655 26.5437" stroke="white" stroke-linecap="round" stroke-linejoin="round"></path> <path d="M184.08 33.151C184.08 33.151 183.239 36.051 179.853 34.9663C177.009 34.0476 176.755 29.3433 180.462 27.8379C186.691 25.3031 192.434 35.9071 180.384 41.6297" stroke="white" stroke-linecap="round" stroke-linejoin="round"></path> <path d="M271.857 8.7777C271.857 8.7777 273.616 5.98834 275.685 7.82577C277.301 9.25366 275.531 12.6629 271.304 12.6629C266.734 12.6629 263.89 6.55285 267.951 2.8005C270.906 0.0775517 277.356 0.354274 280.233 4.23945C283.42 8.54525 283.066 17.7546 269.633 19.1824" stroke="white" stroke-linecap="round" stroke-linejoin="round"></path> <path d="M394.111 416.854C394.111 416.854 395.384 424.514 394.111 427.569C392.839 430.624 386.975 432.926 386.975 432.926C386.975 432.926 381.996 442.368 383.688 451.589C386.09 464.617 389.409 468.779 394.145 473.284C401.093 479.903 408.584 484.906 413.032 489.522C417.248 493.894 422.05 502.328 422.05 502.328C422.05 502.328 421.618 484.53 423.953 463.798C426.376 442.28 427.018 415.493 420.468 397.794C413.087 377.848 391.644 363.049 369.138 362.008C351.302 361.178 340.414 365.594 331.142 376.586C321.87 387.577 320.531 409.726 333.211 417.74C342.439 423.562 366.018 423.761 374.328 411.519C382.637 399.277 373.21 388.817 373.21 388.817C373.21 388.817 384.087 400.672 377.891 414.718C371.351 429.55 353.703 430.17 344.232 428.455C335.026 426.794 316.183 413.877 324.304 387.079C335.48 350.231 381.741 355.367 392.839 357.636C406.128 360.359 414.426 366.391 421.087 373.365C428.213 380.825 431.388 388.917 432.152 388.662C432.915 388.407 445.883 368.162 444.356 344.951C442.829 321.739 429.574 308.224 411.206 300.576C392.85 292.927 375.833 298.727 367.91 307.737C362.743 313.604 354.721 340.125 379.849 344.453C401.436 348.172 413.939 335.299 414.017 326.853C414.072 320.179 408.407 317.412 408.407 317.412C408.407 317.412 417.569 320.965 415.544 333.484C413.519 346.002 398.205 352.356 389.542 352.356C380.878 352.356 366.162 350.341 362.511 332.974C358.848 315.53 367.102 303.575 380.612 297.742C394.122 291.909 419.195 292.872 436.224 309.364C452.035 324.673 455.067 341.818 454.126 359.584C453.341 374.427 448.284 394.318 448.284 394.318C448.284 394.318 452.754 385.762 463.465 378.622C474.176 371.483 502.169 360.326 519.441 350.452C534.578 341.796 550.644 323.178 551.938 311.545C553.299 299.369 544.293 292.673 540.973 290.636C537.654 288.599 533.836 287.57 533.836 287.57C533.836 287.57 557.072 290.691 551.949 319.448C547.546 344.154 511.486 363.104 494.059 371.228C478.745 378.357 466.264 387.046 456.583 401.834C446.89 416.622 448.937 433.967 448.937 441.117C448.937 448.268 449.446 467.129 450.209 475.553C450.973 483.965 448.682 509.988 448.682 509.988C448.682 509.988 454.801 496.473 469.329 487.795C483.857 479.128 503.497 472.232 521.599 461.783C539.701 451.323 547.601 441.128 548.11 430.159C548.619 419.19 543.518 414.851 541.482 413.323C539.446 411.796 535.872 409.748 535.872 409.748C535.872 409.748 551.938 413.833 550.146 440.863C548.364 467.904 520.061 475.298 501.45 484.474C482.839 493.661 467.703 501.033 456.572 519.928C449.435 532.048 448.926 577.962 449.435 585.356C449.944 592.75 450.785 627.296 466.486 627.296" stroke="white" stroke-linecap="round" stroke-linejoin="round"></path> <path d="M502.104 262.012C517.318 262.145 526.623 252.227 526.623 252.227C526.623 252.227 531.47 261.702 542.523 257.119C552.194 253.112 551.652 243.372 550.103 237.472C548.554 231.572 542.302 227.067 534.856 226.569C532.067 226.381 499.836 226.99 499.836 226.99C472.65 226.99 464.064 226.946 460.545 227.831C455.4 229.115 448.651 234.716 448.684 243.959C448.717 253.035 457.358 263.03 467.173 262.001C476.987 260.971 477.928 253.013 477.928 253.013C477.928 253.013 482.011 261.824 502.115 262.001L502.104 262.012Z" stroke="white" stroke-linecap="round" stroke-linejoin="round"></path> <path d="M471.455 253.035C471.455 253.035 468.313 256.765 464.307 253.898C460.689 251.319 463.566 245.63 467.306 244.446C471.82 243.029 477.651 244.833 477.917 253.024" stroke="white" stroke-linecap="round" stroke-linejoin="round"></path> <path d="M530.97 250.998C530.97 250.998 534.4 254.972 538.295 251.706C541.393 249.105 540.098 242.409 534.842 241.7C530.24 241.08 523.999 244.379 526.621 252.238" stroke="white" stroke-linecap="round" stroke-linejoin="round"></path> <path d="M425.026 451.954C425.026 451.954 424.185 443.165 421.054 438.66C418.918 435.583 417.247 432.705 415.057 431.045C410.432 427.558 408.717 425.134 407.621 421.371C405.884 415.416 409.06 409.162 409.06 409.162C409.06 409.162 408.883 413.379 411.272 416.069C413.662 418.758 414.481 419.965 415.223 423.02C415.82 425.499 415.842 428.942 415.842 429.993C415.842 431.045 422.171 437.741 423.82 443.685C425.468 449.629 425.037 451.943 425.037 451.943L425.026 451.954Z" stroke="white" stroke-linecap="round" stroke-linejoin="round"></path> <path d="M398.727 453.414C398.727 453.414 404.425 457.975 406.217 463.354C408.364 469.807 406.538 475.01 406.538 475.01C406.538 475.01 408.408 479.736 409.714 482.835C411.019 485.935 414.372 490.329 416.076 491.967C417.78 493.606 421.996 498.166 421.996 498.166V499.793C421.996 499.793 413.642 489.997 411.185 486.344C408.497 482.348 405.731 475.01 405.731 475.01C405.731 475.01 402.068 473.46 400.364 467.129C399.147 462.624 400.608 457.399 398.727 453.403V453.414Z" stroke="white" stroke-linecap="round" stroke-linejoin="round"></path> <path d="M449.481 453.414C449.481 453.414 450.179 444.626 452.746 440.121C454.505 437.043 456.74 433.679 458.543 432.018C462.35 428.532 463.39 426.683 463.799 422.831C464.496 416.278 459.606 410.622 459.606 410.622C459.606 410.622 461.597 413.932 460.701 417.031C459.805 420.13 457.249 421.746 456.74 425.576C456.408 428.078 457.05 430.402 457.05 431.454C457.05 432.505 451.849 439.202 450.488 445.146C449.116 451.145 449.493 453.403 449.493 453.403L449.481 453.414Z" stroke="white" stroke-linecap="round" stroke-linejoin="round"></path> <path d="M444.049 340.137C439.789 347.73 434.766 355.689 432.586 364.212C430.661 371.716 431.469 380.173 432.885 387.722" stroke="white" stroke-linecap="round" stroke-linejoin="round"></path> <path d="M446.568 322.426C455.32 308.512 463.364 284.282 447.686 272.04C441.633 267.314 432.748 264.203 425.069 265.908C416.616 267.779 412.389 276.39 416.118 284.271C419.847 292.152 434.076 294.112 435.592 283.53C434.662 293.757 421.13 298.185 415.056 289.429C409.247 281.526 412.566 271.564 420.311 267.137C439.121 258.282 459.038 275.992 460.144 294.809C461.251 306.985 456.604 320.024 450.142 329.831" stroke="white" stroke-linecap="round" stroke-linejoin="round"></path> <path d="M422.992 375.478C421.022 357.923 432.087 343.39 441.569 329.819" stroke="white" stroke-linecap="round" stroke-linejoin="round"></path> <path d="M374.507 356.111C374.507 356.111 353.285 357.595 344.156 348.806C335.028 340.017 341.08 328.716 341.08 328.716C341.08 328.716 334.807 340.128 338.569 347.555C342.109 354.54 351.348 355.846 355.11 356.322C358.872 356.798 374.507 356.111 374.507 356.111Z" stroke="white" stroke-linecap="round" stroke-linejoin="round"></path> <path d="M345.284 362.185C345.284 362.185 329.085 370.188 318.707 360.027C309.976 351.482 317.456 341.608 317.456 341.608C317.456 341.608 309.921 345.981 312.555 356.142C315.642 368.085 333.555 366.989 338.568 364.931C340.493 364.145 345.295 362.174 345.295 362.174L345.284 362.185Z" stroke="white" stroke-linecap="round" stroke-linejoin="round"></path> <path d="M329.041 376.553C329.041 376.553 319.536 387.267 311.083 383.05C302.618 378.822 304.322 369.048 304.322 369.048C304.322 369.048 301.246 377.98 305.572 382.972C310.231 388.341 317.788 386.99 321.295 384.633C323.641 383.061 329.041 376.553 329.041 376.553Z" stroke="white" stroke-linecap="round" stroke-linejoin="round"></path> <path d="M473.469 372.989C473.469 372.989 474.542 295.96 475.427 258.149" stroke="white" stroke-linecap="round" stroke-linejoin="round"></path> <path d="M469.895 487.418L473.468 383.426" stroke="white" stroke-linecap="round" stroke-linejoin="round"></path> <path d="M529.653 691.063C529.653 699.188 516.099 701.911 507.247 701.911C491.756 703.018 463.42 700.682 464.26 692.857C466.861 628.259 467.945 568.044 469.948 504.088" stroke="white" stroke-linecap="round" stroke-linejoin="round"></path> <path d="M529.145 471.191C529.145 491.171 529.322 618.695 529.654 691.064" stroke="white" stroke-linecap="round" stroke-linejoin="round"></path> <path d="M529.133 350.574V456.99" stroke="white" stroke-linecap="round" stroke-linejoin="round"></path> <path d="M528.725 254.972C528.747 282.666 528.725 315.563 528.637 344.043" stroke="white" stroke-linecap="round" stroke-linejoin="round"></path> <path d="M528.184 201.188C528.184 201.188 528.084 203.258 530.352 203.302C533.074 203.358 534.889 199.207 531.879 196.893C528.449 194.248 523.105 197.17 524.012 206.413" stroke="white" stroke-linecap="round" stroke-linejoin="round"></path> <path d="M513.922 159.613C513.922 159.613 513.922 162.148 516.456 162.071C519.178 161.993 521.136 157.909 518.226 155.452C515.039 152.762 507.925 155.297 511.111 165.557" stroke="white" stroke-linecap="round" stroke-linejoin="round"></path> <path d="M494.414 123.308C494.414 123.308 494.912 126.042 497.634 125.466C500.555 124.846 501.861 120.065 498.243 117.995C494.27 115.715 487.101 119.843 492.544 130.281" stroke="white" stroke-linecap="round" stroke-linejoin="round"></path> <path d="M465.425 88.2081C465.425 88.2081 466.266 91.1081 469.652 90.0234C472.495 89.1047 472.672 84.5886 469.043 82.895C464.894 80.958 457.237 86.8577 465.624 95.3697" stroke="white" stroke-linecap="round" stroke-linejoin="round"></path> <path d="M429.462 57.7909C429.462 57.7909 430.757 60.5249 433.921 58.92C436.588 57.5695 436.057 53.0756 432.206 51.9687C427.813 50.7068 421.175 57.7356 430.779 64.8307" stroke="white" stroke-linecap="round" stroke-linejoin="round"></path> <path d="M345.838 18.5187C345.838 18.5187 346.679 21.4188 350.065 20.334C352.908 19.4153 353.086 14.8881 349.456 13.2057C342.342 9.90714 335.902 22.7803 349.036 26.5437" stroke="white" stroke-linecap="round" stroke-linejoin="round"></path> <path d="M387.593 33.151C387.593 33.151 388.434 36.051 391.82 34.9663C394.664 34.0476 394.918 29.3433 391.211 27.8379C384.982 25.3031 379.239 35.9071 391.289 41.6297" stroke="white" stroke-linecap="round" stroke-linejoin="round"></path> <path d="M299.828 8.7777C299.828 8.7777 298.069 5.98834 296 7.82577C294.384 9.25366 296.155 12.6629 300.381 12.6629C304.951 12.6629 307.795 6.55285 303.734 2.8005C300.78 0.0775517 294.329 0.354274 291.452 4.23945C288.266 8.54525 288.62 17.7546 302.052 19.1824" stroke="white" stroke-linecap="round" stroke-linejoin="round"></path> <path d="M527.431 225.86C511.531 107.036 409.791 18.7173 286.663 18.7173H285.026C161.898 18.7173 60.1578 107.036 44.2578 225.86" stroke="white" stroke-linecap="round" stroke-linejoin="round"></path> <path d="M394.402 417.042C394.402 417.042 389.876 419.123 387.796 423.285C385.716 427.447 386.369 432.439 386.369 432.439C386.369 432.439 382.817 440.209 382.894 447.935C383.016 459.69 389.677 470.593 389.677 470.593C389.677 470.593 382.939 462.823 372.726 464.151C364.018 465.291 362.602 473.039 363.94 476.914C365.921 482.625 373.069 485.116 373.069 485.116C373.069 485.116 368.798 481.762 368.034 476.172C367.337 471.047 369.827 465.513 376.532 465.391C381.235 465.302 386.037 467.771 389.301 472.375C392.565 476.98 397.754 483.334 399.237 484.817C400.72 486.3 406.219 493.395 406.219 493.395C406.219 493.395 399.602 487.285 387.929 491.049C378.734 494.004 378.048 503.733 379.365 508.393C380.936 513.928 386.236 517.171 389.644 517.448C395.397 517.924 398.971 515.19 398.971 515.19C398.971 515.19 392.742 517.193 387.099 511.703C381.456 506.213 383.049 498.033 386.037 494.668C389.942 490.285 399.403 490.063 404.902 493.771C410.401 497.48 416.631 509.666 419.164 519.33C421.687 528.993 425.471 554.518 425.139 592.428C424.807 630.339 420.89 655.82 419.585 661.056C418.279 666.291 415.801 674.272 410.976 678.666C406.75 682.507 400.598 679.197 396.36 683.448C392.122 687.698 391.503 695.369 385.295 702.232C379.088 709.094 369.993 716.832 336.301 719.876C321.352 721.226 305.74 721.669 295.262 721.802L294.897 721.835H276.806L276.441 721.802C265.952 721.669 250.35 721.226 235.402 719.876C201.699 716.832 192.615 709.094 186.407 702.232C180.2 695.369 179.592 687.698 175.343 683.448C171.094 679.197 164.953 682.507 160.726 678.666C155.891 674.272 153.424 666.28 152.118 661.056C150.812 655.831 146.895 630.339 146.563 592.428C146.231 554.518 150.016 528.993 152.538 519.33C155.061 509.666 161.302 497.491 166.801 493.771C172.3 490.052 181.76 490.274 185.666 494.668C188.665 498.033 190.247 506.202 184.604 511.703C178.961 517.204 172.731 515.19 172.731 515.19C172.731 515.19 176.316 517.924 182.059 517.448C185.467 517.171 190.767 513.928 192.338 508.393C193.655 503.745 192.969 494.015 183.774 491.049C172.09 487.285 165.484 493.395 165.484 493.395C165.484 493.395 170.983 486.3 172.466 484.817C173.949 483.334 179.138 476.98 182.402 472.375C185.666 467.771 190.468 465.302 195.171 465.391C201.876 465.524 204.365 471.047 203.668 476.172C202.905 481.773 198.634 485.116 198.634 485.116C198.634 485.116 205.782 482.625 207.762 476.914C209.101 473.039 207.685 465.291 198.977 464.151C188.764 462.812 182.026 470.593 182.026 470.593C182.026 470.593 188.687 459.69 188.808 447.935C188.886 440.209 185.334 432.439 185.334 432.439C185.334 432.439 185.987 427.447 183.907 423.285C181.827 419.123 177.301 417.042 177.301 417.042" stroke="white" stroke-linecap="round" stroke-linejoin="round"></path> <path d="M471.843 227.09C459.705 140.841 380.592 73.0884 286.664 73.0884H285.026C191.098 73.0884 111.975 140.841 99.8477 227.09" stroke="white" stroke-linecap="round" stroke-linejoin="round"></path> <mask id="path-58-inside-1_1199_1083" fill="white"> <path fill-rule="evenodd" clip-rule="evenodd" d="M289.988 58.2506L285.372 30.1958L280.873 57.5449L272.114 51.3625L276.154 62.8575L253.258 68.1071L276.557 73.4492L272.114 86.0932L281.056 79.7816L285.372 106.018L289.805 79.0759L299.746 86.0932L295.22 73.2124L317.487 68.1071L295.623 63.0943L299.746 51.3625L289.988 58.2506Z"></path> </mask> <path fill-rule="evenodd" clip-rule="evenodd" d="M289.988 58.2506L285.372 30.1958L280.873 57.5449L272.114 51.3625L276.154 62.8575L253.258 68.1071L276.557 73.4492L272.114 86.0932L281.056 79.7816L285.372 106.018L289.805 79.0759L299.746 86.0932L295.22 73.2124L317.487 68.1071L295.623 63.0943L299.746 51.3625L289.988 58.2506Z" fill="#202020"></path> <path d="M285.372 30.1958L286.359 30.0335L284.386 30.0335L285.372 30.1958ZM289.988 58.2506L289.001 58.4129L289.26 59.9882L290.565 59.0676L289.988 58.2506ZM280.873 57.5449L280.296 58.3619L281.6 59.2825L281.859 57.7073L280.873 57.5449ZM272.114 51.3625L272.691 50.5456L270.132 48.7397L271.17 51.6941L272.114 51.3625ZM276.154 62.8575L276.377 63.8322L277.468 63.5821L277.097 62.526L276.154 62.8575ZM253.258 68.1071L253.034 67.1324L253.034 69.0818L253.258 68.1071ZM276.557 73.4492L277.501 73.7808L277.872 72.7247L276.781 72.4745L276.557 73.4492ZM272.114 86.0932L271.17 85.7616L270.132 88.716L272.691 86.9102L272.114 86.0932ZM281.056 79.7816L282.042 79.6193L281.783 78.044L280.479 78.9646L281.056 79.7816ZM285.372 106.018L284.386 106.181H286.359L285.372 106.018ZM289.805 79.0759L290.382 78.259L289.077 77.3383L288.818 78.9136L289.805 79.0759ZM299.746 86.0932L299.17 86.9102L301.728 88.716L300.69 85.7616L299.746 86.0932ZM295.22 73.2124L294.996 72.2377L293.905 72.4879L294.276 73.544L295.22 73.2124ZM317.487 68.1071L317.71 69.0818V67.1324L317.487 68.1071ZM295.623 63.0943L294.68 62.7627L294.309 63.8188L295.4 64.069L295.623 63.0943ZM299.746 51.3625L300.69 51.6941L301.728 48.7397L299.17 50.5456L299.746 51.3625ZM284.386 30.3581L289.001 58.4129L290.975 58.0883L286.359 30.0335L284.386 30.3581ZM281.859 57.7073L286.359 30.3581L284.386 30.0335L279.886 57.3826L281.859 57.7073ZM271.537 52.1795L280.296 58.3619L281.449 56.7279L272.691 50.5456L271.537 52.1795ZM277.097 62.526L273.057 51.031L271.17 51.6941L275.21 63.1891L277.097 62.526ZM253.481 69.0818L276.377 63.8322L275.93 61.8828L253.034 67.1324L253.481 69.0818ZM276.781 72.4745L253.481 67.1324L253.034 69.0818L276.334 74.4239L276.781 72.4745ZM273.057 86.4247L277.501 73.7808L275.614 73.1177L271.17 85.7616L273.057 86.4247ZM280.479 78.9646L271.537 85.2762L272.691 86.9102L281.632 80.5986L280.479 78.9646ZM286.359 105.856L282.042 79.6193L280.069 79.944L284.386 106.181L286.359 105.856ZM288.818 78.9136L284.386 105.856L286.359 106.181L290.792 79.2383L288.818 78.9136ZM300.323 85.2762L290.382 78.259L289.228 79.8929L299.17 86.9102L300.323 85.2762ZM294.276 73.544L298.803 86.4247L300.69 85.7616L296.163 72.8809L294.276 73.544ZM317.263 67.1324L294.996 72.2377L295.443 74.1872L317.71 69.0818L317.263 67.1324ZM295.4 64.069L317.263 69.0818L317.71 67.1324L295.847 62.1196L295.4 64.069ZM298.803 51.031L294.68 62.7627L296.567 63.4258L300.69 51.6941L298.803 51.031ZM290.565 59.0676L300.323 52.1795L299.17 50.5456L289.411 57.4336L290.565 59.0676Z" fill="white" mask="url(#path-58-inside-1_1199_1083)"></path> </g> <defs> <clipPath id="clip0_1199_1083"> <rect width="571" height="658" fill="white"></rect> </clipPath> </defs> </svg> 