<?xml version="1.0" encoding="UTF-8"?> <svg xmlns="http://www.w3.org/2000/svg" width="1440" height="66" viewBox="0 0 1440 66" fill="none"> <path d="M1440 22.8144L1369.45 22.8144L1308.59 14.5248L1235.27 15.9098L1170.41 23.9604L1142.73 33.8689L1054.06 35.2488L1029.16 26.9592L933.717 9.00008L603.111 25.5793L524.293 29.9037L359.655 24.1994L248.989 9.00002L120.344 18.6695L4.13775e-06 18.6695L0 65.9999L1440 66L1440 22.8144Z" fill="#F0F0F0"></path> <path d="M9.68982e-07 27.916C4.23279 28.6506 17.2574 28.1896 13.568 27.916C13.6508 27.1358 22.4167 27.6627 31.7311 27.0396C41.0455 25.7984 50.9084 29.2383 53.2009 27.227C59.4674 25.9554 65.5787 30.3478 71.6901 28.2048C77.8013 26.8825 83.9075 28.3061 90.1688 29.1876C101.191 29.1066 112.808 34.112 123.809 29.2434C130.2 28.1947 135.333 29.4663 141.859 28.1389C149.305 27.5918 157.031 32.1362 164.42 30.2971C167.934 33.3115 169.29 29.7804 173.036 28.1339C175.561 27.8907 178.278 24.1316 180.783 28.2555C184.731 25.5501 188.001 25.8997 192.12 26.1935C196.529 27.3892 201.595 24.3849 206.082 26.2391C210.004 24.6534 214.444 25.9656 218.258 26.2898C219.086 25.9098 220.033 26.0618 220.343 25.4944C225.575 27.6222 230.837 22.1355 235.95 23.2703C244.323 22.9005 252.84 22.5003 261.233 23.2906C268.964 24.9473 276.799 22.5611 284.514 23.3261C290.864 25.8541 296.659 21.0716 302.838 21.5326C307.371 20.7727 310.708 19.9875 314.077 22.4648C316.996 25.8997 319.278 22.8043 322.786 25.8794C329.073 26.8167 334.088 30.6822 341.229 29.2029C350.191 32.4199 357.477 35.3178 366.548 31.1584C371.557 31.2294 375.356 30.4998 380.08 30.1503C385.752 31.969 388.453 32.729 393.824 31.893C403.485 33.9499 411.786 35.5204 421.788 35.0341C427.486 37.6786 432.314 40.2523 438.208 37.091C440.221 37.9573 444.722 36.7769 446.394 36.9339C447.62 35.3634 447.584 34.6186 448.743 34.4869C452.402 32.7036 465.162 33.7422 469.106 34.2944C473.825 35.7991 477.82 35.4799 482.57 36.0878C487.553 37.628 492.692 33.4636 497.68 36.0625C501.375 38.1295 508.982 36.2753 512.759 36.1334C516.795 36.863 518.503 30.9406 523.3 34.0462C527.036 34.6136 530.803 33.9195 534.539 34.1424C540.992 33.5902 546.829 29.9375 553.329 33.1089C559.073 32.0855 564.816 30.6113 570.56 33.1089C575.099 30.1705 578.146 33.4129 581.81 32.1717C584.273 31.6397 586.033 26.7103 588.724 29.1776C591.958 27.3183 595.88 27.1004 599.151 27.9769C600.082 27.5513 600.972 30.7582 602.229 27.1713C604.377 27.3943 607.492 27.2524 609.702 27.2068C618.266 25.6262 626.835 29.2232 635.399 27.2068C640.538 27.1106 645.821 27.0599 650.954 27.1815C654.219 29.1522 656.067 29.8919 659.089 28.7064C660.972 29.5828 663.508 26.3912 665.236 29.3346C666.711 29.9983 667.399 29.8767 668.641 31.1838C672.176 30.2972 676.357 31.0723 680.652 32.1109C683.265 31.3662 685.381 31.0521 687.901 31.8981C688.01 31.0622 689.076 32.0096 689.614 31.0824C694.836 29.3042 702.567 30.7836 708.222 31.1331C717.449 32.1818 726.96 30.9862 736.166 31.0825C739.664 30.586 742.748 31.0217 746.194 32.1514C748.87 32.962 751.71 34.8163 754.396 32.116C758.707 28.9192 763.281 33.3319 767.54 32.1869C773.568 32.7949 778.143 30.5201 784.477 30.1503C790.391 30.5404 792.797 27.8148 798.008 28.1187C803.633 28.7976 809.356 29.36 815.002 29.1776C819.887 30.8798 824.818 30.7988 829.703 29.1675C835.142 27.7185 840.58 29.1675 846.014 29.1421C851.499 30.3479 856.425 32.6125 861.9 30.2313C863.504 31.4979 865.083 31.2648 866.635 29.978C867.096 28.8888 867.706 29.5221 868.467 28.7571C871.158 29.2789 873.083 28.9344 876.208 28.1644C880.839 29.2232 884.265 27.9516 888.612 27.4196C896.379 25.6768 905.445 27.146 913.43 27.293C920.602 27.0245 918.144 27.9718 922.33 24.4204C924.607 21.9431 924.074 24.8359 926.822 23.2147C930.785 24.2988 935.536 22.3585 939.582 23.2704C947.044 21.8468 954.511 23.5288 961.973 23.2704C970.667 21.3098 979.143 27.1764 987.547 25.5097C994.698 26.5634 1001.55 30.1706 1008.73 29.9578C1013.87 30.9204 1016.39 28.2049 1020.79 32.5618C1024.61 34.2134 1028.71 39.2289 1033.65 37.1518C1041.04 36.9289 1049.41 37.0606 1056.91 37.0302C1065.16 36.9542 1076.63 35.0392 1083.96 37.9624C1092.37 38.1904 1100.9 39.0668 1109.8 38.9959C1117.39 36.1183 1125.19 40.3182 1133.33 38.0131C1136.72 39.7964 1140.64 34.8467 1143.98 38.0536C1149.28 34.5123 1149.64 32.9114 1151.39 33.185C1155.41 28.4379 1157.28 33.0279 1160.74 30.5354C1164.05 27.4045 1166.41 27.982 1169.66 30.1909C1171.88 27.4652 1173.53 27.9263 1175.72 29.1168C1178.38 34.5579 1181.9 25.7782 1184.65 29.1675C1190.85 26.8472 1197.06 29.3296 1203.26 29.1675C1207.74 29.7602 1217.21 28.9547 1221.14 29.1269C1223.73 27.2119 1223.36 23.6555 1224.97 26.1683C1226.56 27.7439 1228.13 21.4922 1230.67 24.2482C1235.92 22.1559 1241 17.0643 1245.86 22.2065C1251 20.8539 1257.16 22.855 1263.4 20.0939C1269.65 23.1792 1275.98 22.4142 1281.47 20.7728C1288.98 19.4556 1293.54 27.5919 1301.43 25.2614C1310.98 26.761 1321.07 23.6555 1330.54 25.1905C1337.4 29.6843 1344.67 29.2638 1351.48 27.4298C1354.29 26.0771 1356.01 27.7844 1358.39 29.1726C1361.97 32.3947 1365.26 32.3187 1369.56 31.1838C1376.19 30.6823 1383.42 33.2103 1390.05 31.118C1396.83 32.4048 1400.24 30.429 1407.15 34.1324C1409.66 32.648 1414.48 35.8599 1416.69 34.1577C1419.74 34.6187 1420.88 31.4878 1424.49 32.0451C1429.28 31.3865 1435.14 31.2599 1440 32.1211C1440 32.1211 1440 17.5737 1440 16.0842C1436.36 14.4833 1430.99 13.746 1425.76 12.449C1422.34 12.6264 1418.91 12.9354 1415.48 12.4642C1410.38 12.4896 1402.71 11.9272 1398.49 13.0418C1396.65 15.504 1396.06 14.3641 1393.76 14.9315C1391.08 18.7666 1388.7 16.7806 1385.81 15.4229C1381.11 14.8605 1378.32 13.9588 1374.31 13.9436C1370.73 13.0063 1369.54 9.98181 1365.31 12.6466C1363.83 9.23707 1365.34 8.89762 1365.41 8.60378C1360.99 9.24719 1356.01 6.34933 1351.3 7.82359C1347.2 8.1529 1343.74 6.5621 1339.45 6.5469C1328.83 2.94483 1317.73 5.64514 1307.45 7.33218C1298.91 12.5149 1288.64 7.74254 1279.91 7.55003C1271.03 7.50443 1263.97 6.67863 1255.17 10.5492C1247.48 13.9638 1237.72 9.73354 1230.45 10.6657C1228.11 12.6365 1228.38 8.18836 1226.84 12.2717C1224.9 15.1899 1222.41 12.3832 1220.32 12.9506C1218.36 14.9315 1216.38 14.2323 1214.43 13.6852C1212.04 9.60689 1208.18 12.9911 1206.2 14.3742C1202.96 15.5394 1202.4 19.3391 1198 16.4361C1193.99 13.746 1189.94 13.751 1185.92 16.3652C1181.9 15.8383 1181.62 18.7919 1178.52 17.9864C1175.29 20.1648 1168.93 20.4638 1165.06 21.1376C1161.34 21.0565 1158.19 20.2915 1154.52 22.2673C1149.57 22.4193 1144.26 22.7942 1139.81 25.9505C1136.79 24.6738 1134.6 30.3124 1131.52 30.0237C1127.36 31.3307 1119.07 29.2637 1114.84 30.1452C1108.2 29.6994 1104.03 32.2072 1098.09 28.6406C1096.17 23.2502 1094.33 27.8351 1092.44 27.6223C1090.39 26.2139 1089.28 27.9617 1087.38 25.4235C1083.49 24.6991 1077.01 24.8511 1072.54 23.4629C1067.11 20.7018 1060.91 22.9614 1055.38 23.2653C1052.3 22.8246 1048.14 21.5732 1045.12 23.4072C1038.76 22.3686 1036.67 20.9704 1033.67 16.5425C1031.96 15.6559 1029.15 11.5675 1026.32 11.6638C1024.29 10.4124 1020.08 12.5655 1017.73 10.5441C1012.85 10.1591 1007.95 5.5995 1003.11 7.69184C999.945 5.55897 994.465 8.84186 991.293 7.49932C987.267 8.59362 984.556 10.0932 980.09 9.58152C976.607 9.18636 971.831 9.91083 968.436 9.33835C966.625 7.10416 965.083 5.35633 963.122 7.70705C960.214 10.2604 957.383 9.23197 954.517 7.32708C951.065 2.86883 947.267 7.88434 943.541 5.66028C939.515 9.03437 934.785 2.89921 930.672 5.57416C926.884 3.16265 923.101 1.9569 919.313 5.57416C913.481 4.19616 908.529 4.84465 902.884 6.60261C897.109 7.8945 889.021 9.45992 883.246 6.35434C879.246 4.90035 875.308 3.0512 871.256 4.34307C866.169 3.73513 861.564 2.80296 856.663 2.07343C852.632 0.852472 839.52 1.09564 835.582 1.77958C836.244 7.80835 823.328 5.42722 818.128 4.58117C808.901 4.18094 800.668 5.19418 791.374 3.59832C783.167 3.44633 777.242 0.249572 769.315 0.852446C763.467 1.19695 754.303 -1.12844 748.399 0.725793C742.086 1.06523 736.373 0.862567 729.889 4.38864C722.365 2.79279 715.938 2.87894 708.523 3.59327C702.924 4.0087 697.319 2.84852 691.726 3.60339C689.102 3.92762 686.468 1.94675 683.896 3.77058C681.485 4.5609 679.337 5.16884 676.962 5.38162C675.482 6.26821 673.661 5.54375 672.233 5.73626C668.859 6.08583 666.375 6.98761 662.991 8.93303C660.098 10.7873 655.922 10.5694 652.688 10.5289C649.148 10.7619 646.67 9.78923 643.063 10.9038C637.961 12.145 634.695 11.9272 630.292 14.9517C622.126 17.1251 610.809 16.0662 601.759 16.3803C592.786 18.5132 585.836 16.2436 577.582 18.3815C573.101 20.6512 568.754 22.0646 563.947 23.1285C561.106 26.0264 556.972 23.625 554.095 23.24C547.963 21.7556 543.543 21.6948 537.67 24.6484C534.327 23.1741 530.493 25.1347 526.917 25.2664C525.851 27.1055 524.62 26.4925 523.585 25.0587C522.881 24.1468 522.42 24.9726 521.318 23.3768C518.343 24.8409 514.979 23.6047 512.516 24.77C503.91 25.0739 495.17 23.4831 486.415 24.2177C481.038 23.4679 475.641 26.5786 470.265 24.2431C462.472 22.0038 455.574 23.4122 449.349 22.5459C445.09 24.01 439.01 16.2334 433.695 18.5436C426.668 20.6106 420.008 18.3207 413.317 17.3632C407.791 14.9821 401.933 13.6952 396.153 14.7338C390.104 12.373 381.027 9.19645 373.488 10.5187C371.325 9.53589 370.983 12.7175 368.82 12.5199C366.274 13.6243 361.239 10.6302 358.31 12.449C352.763 12.3071 345.099 7.25608 340.623 13.3811C336.696 14.4501 337.172 14.8858 331.443 15.4684C327.645 14.6528 324.178 14.3133 320.411 14.3792C317.922 15.362 315.319 15.286 312.82 14.4096C307.981 12.839 305.813 16.6691 301.611 12.9404C295.614 13.6395 288.882 12.9758 282.444 9.44976C272.939 7.63606 262.263 2.85861 252.043 5.52849C244.85 6.35935 237.657 4.87497 230.465 5.6045C223.267 5.6045 216.074 7.0433 208.881 5.5741C202.558 2.37733 193.129 3.13727 187.287 6.15165C182.273 6.86092 179.049 9.2319 173.165 8.52263C166.304 12.4692 159.442 7.70697 152.581 8.52263C145.486 7.15475 136.172 6.64306 129.181 8.45169C125.517 9.24202 125.15 14.4248 122.21 11.3192C119.074 15.6964 113.672 10.4731 110.505 10.7568C100.653 12.8643 90.7432 5.30559 80.9941 6.53161C74.4067 3.45136 69.144 3.11698 62.1013 2.59516C52.6731 2.68128 44.0469 2.30132 35.1981 4.83948C26.9083 10.316 19.757 7.37258 10.7788 6.58225C7.04785 9.90568 3.76197 5.89103 2.73414e-06 7.72499L2.31338e-06 12.5379L1.89262e-06 17.3508L1.22827e-06 24.9501L9.68982e-07 27.916Z" fill="white"></path> </svg> 