<?xml version="1.0" encoding="UTF-8"?> <svg xmlns="http://www.w3.org/2000/svg" width="1440" height="800" viewBox="0 0 1440 800" fill="none"> <g clip-path="url(#clip0_1199_1266)"> <g opacity="0.4"> <path d="M435.985 318.671C435.985 318.671 432.647 338.779 435.985 346.799C439.323 354.819 454.706 360.862 454.706 360.862C454.706 360.862 467.768 385.648 463.327 409.853C457.028 444.053 448.321 454.979 435.898 466.805C417.67 484.181 398.019 497.315 386.351 509.432C375.292 520.91 362.695 543.052 362.695 543.052C362.695 543.052 363.827 496.327 357.703 441.903C351.579 387.479 349.663 315.097 366.846 268.635C386.206 216.273 442.458 177.424 501.496 174.692C548.285 172.513 576.846 184.107 601.169 212.961C625.493 241.815 629.005 299.958 595.742 320.996C571.534 336.28 509.681 336.803 487.883 304.666C466.084 272.528 490.814 245.069 490.814 245.069C490.814 245.069 462.282 276.189 478.536 313.063C495.69 352 541.986 353.627 566.832 349.123C590.981 344.765 640.412 310.855 619.107 240.507C589.791 143.775 468.435 157.258 439.323 163.215C404.463 170.363 382.694 186.199 365.221 204.505C346.528 224.09 338.198 245.331 336.195 244.662C334.192 243.994 300.174 190.848 304.18 129.915C308.185 68.982 342.958 33.5031 391.14 13.4245C439.323 -6.65405 483.935 8.57197 504.717 32.2246C518.272 47.625 539.316 117.246 473.399 128.608C416.77 138.371 383.971 104.577 383.768 82.4066C383.623 64.885 398.484 57.6206 398.484 57.6206C398.484 57.6206 374.451 66.9481 379.762 99.8119C385.074 132.676 425.245 149.354 447.972 149.354C470.699 149.354 509.303 144.066 518.882 98.4752C528.489 52.681 506.836 21.2991 471.396 5.98587C435.956 -9.32731 370.184 -6.79933 325.514 36.496C284.036 76.6822 276.083 121.692 278.55 168.329C280.611 207.295 293.876 259.511 293.876 259.511C293.876 259.511 282.149 237.049 254.053 218.307C225.956 199.565 152.521 170.276 107.212 144.357C67.5054 121.634 25.3603 72.7595 21.9643 42.2203C18.3942 10.2573 42.021 -7.32231 50.7287 -12.6689C59.4363 -18.0154 69.4501 -20.7178 69.4501 -20.7178C69.4501 -20.7178 8.49648 -12.5236 21.9353 62.9672C33.4875 127.823 128.082 177.569 173.797 198.897C213.968 217.61 246.709 240.42 272.107 279.241C297.533 318.061 292.163 363.594 292.163 382.365C292.163 401.136 290.828 450.649 288.825 472.762C286.823 494.875 292.831 563.159 292.831 563.159C292.831 563.159 276.78 527.68 238.669 504.899C200.559 482.118 149.038 464.045 101.552 436.615C54.0666 409.185 33.3424 382.394 32.0072 353.598C30.672 324.802 44.0528 313.412 49.3935 309.402C54.7342 305.392 64.1094 300.016 64.1094 300.016C64.1094 300.016 21.9643 310.739 26.6665 381.697C31.3686 452.654 105.587 472.094 154.408 496.182C203.229 520.271 242.936 539.652 272.136 589.253C290.857 621.07 292.192 741.6 290.857 761.01C289.522 780.42 287.316 871.108 246.129 871.108" stroke="white" stroke-linecap="round" stroke-linejoin="round"></path> <path d="M354.885 410.813C354.885 410.813 357.091 387.742 365.306 375.916C370.907 367.838 375.29 360.283 381.037 355.924C393.17 346.771 397.669 340.408 400.543 330.528C405.1 314.895 396.769 298.478 396.769 298.478C396.769 298.478 397.234 309.549 390.964 316.61C384.695 323.671 382.547 326.838 380.602 334.858C379.035 341.367 378.977 350.403 378.977 353.164C378.977 355.924 362.374 373.504 358.049 389.108C353.724 404.711 354.856 410.784 354.856 410.784L354.885 410.813Z" stroke="white" stroke-linecap="round" stroke-linejoin="round"></path> <path d="M423.881 414.648C423.881 414.648 408.932 426.619 404.23 440.741C398.599 457.682 403.389 471.338 403.389 471.338C403.389 471.338 398.483 483.746 395.058 491.882C391.633 500.018 382.838 511.554 378.369 515.854C373.899 520.155 362.84 532.126 362.84 532.126V536.398C362.84 536.398 384.754 510.682 391.198 501.093C398.251 490.603 405.507 471.338 405.507 471.338C405.507 471.338 415.115 467.27 419.585 450.65C422.778 438.823 418.946 425.108 423.881 414.619V414.648Z" stroke="white" stroke-linecap="round" stroke-linejoin="round"></path> <path d="M290.741 414.647C290.741 414.647 288.913 391.576 282.179 379.75C277.564 371.672 271.701 362.838 266.969 358.48C256.985 349.327 254.256 344.474 253.182 334.362C251.354 317.16 264.183 302.312 264.183 302.312C264.183 302.312 258.958 311 261.309 319.136C263.661 327.272 270.365 331.515 271.701 341.568C272.571 348.135 270.888 354.237 270.888 356.998C270.888 359.758 284.53 377.338 288.1 392.942C291.67 408.545 290.712 414.618 290.712 414.618L290.741 414.647Z" stroke="white" stroke-linecap="round" stroke-linejoin="round"></path> <path d="M304.992 117.278C316.167 137.211 329.345 158.103 335.063 180.477C340.113 200.178 337.994 222.378 334.279 242.195" stroke="white" stroke-linecap="round" stroke-linejoin="round"></path> <path d="M298.347 70.7825C275.388 34.2575 254.287 -29.349 295.416 -61.4863C311.293 -73.8938 334.6 -82.0589 354.744 -77.584C376.92 -72.6734 388.007 -50.0668 378.226 -29.378C368.444 -8.6892 331.117 -3.5461 327.141 -31.3249C329.579 -4.47593 365.077 7.14694 381.012 -15.8374C396.251 -36.5843 387.543 -62.7358 367.225 -74.3587C317.882 -97.6045 265.636 -51.1129 262.733 -1.71548C259.83 30.2475 272.021 64.477 288.972 90.2217" stroke="white" stroke-linecap="round" stroke-linejoin="round"></path> <path d="M360.23 210.055C365.397 163.97 336.371 125.818 311.496 90.1934" stroke="white" stroke-linecap="round" stroke-linejoin="round"></path> <path d="M487.418 156.593C487.418 156.593 543.089 160.486 567.035 137.415C590.981 114.343 575.104 84.6758 575.104 84.6758C575.104 84.6758 591.562 114.634 581.693 134.131C572.405 152.466 548.168 155.895 538.3 157.145C528.431 158.394 487.418 156.593 487.418 156.593Z" stroke="white" stroke-linecap="round" stroke-linejoin="round"></path> <path d="M564.076 175.159C564.076 175.159 606.569 196.167 633.795 169.492C656.696 147.06 637.075 121.141 637.075 121.141C637.075 121.141 656.842 132.619 649.934 159.293C641.835 190.646 594.843 187.769 581.694 182.365C576.644 180.302 564.047 175.129 564.047 175.129L564.076 175.159Z" stroke="white" stroke-linecap="round" stroke-linejoin="round"></path> <path d="M606.656 212.874C606.656 212.874 631.589 241.001 653.765 229.93C675.94 218.859 671.499 193.173 671.499 193.173C671.499 193.173 679.568 216.622 668.219 229.727C656 243.82 636.175 240.275 626.974 234.085C620.821 229.959 606.656 212.874 606.656 212.874Z" stroke="white" stroke-linecap="round" stroke-linejoin="round"></path> <path d="M227.813 203.519C227.813 203.519 224.998 1.30898 222.676 -97.9507" stroke="white" stroke-linecap="round" stroke-linejoin="round"></path> <path d="M237.188 503.913L227.812 230.919" stroke="white" stroke-linecap="round" stroke-linejoin="round"></path> <path d="M80.4219 1038.51C80.4219 1059.84 115.978 1066.98 139.199 1066.98C179.834 1069.89 254.169 1063.76 251.963 1043.22C245.142 873.637 242.297 715.565 237.044 547.672" stroke="white" stroke-linecap="round" stroke-linejoin="round"></path> <path d="M81.758 461.315C81.758 513.763 81.2933 848.532 80.4219 1038.51" stroke="white" stroke-linecap="round" stroke-linejoin="round"></path> <path d="M81.7578 144.677V424.033" stroke="white" stroke-linecap="round" stroke-linejoin="round"></path> <path d="M82.8608 -106.291C82.8027 -33.5897 82.8608 52.7686 83.0932 127.533" stroke="white" stroke-linecap="round" stroke-linejoin="round"></path> <path d="M1004.01 318.671C1004.01 318.671 1007.35 338.779 1004.01 346.799C1000.68 354.819 985.293 360.862 985.293 360.862C985.293 360.862 972.231 385.648 976.672 409.853C982.971 444.053 991.678 454.979 1004.1 466.805C1022.33 484.181 1041.98 497.315 1053.65 509.432C1064.71 520.91 1077.3 543.052 1077.3 543.052C1077.3 543.052 1076.17 496.327 1082.3 441.903C1088.65 385.416 1090.34 315.097 1073.15 268.635C1053.79 216.273 997.541 177.424 938.503 174.692C891.714 172.513 863.153 184.107 838.83 212.961C814.506 241.815 810.994 299.958 844.257 320.996C868.465 336.28 930.318 336.803 952.116 304.666C973.915 272.528 949.185 245.069 949.185 245.069C949.185 245.069 977.717 276.189 961.463 313.063C944.309 352 898.013 353.627 873.167 349.123C849.018 344.765 799.587 310.855 820.892 240.507C850.208 143.775 971.563 157.258 1000.68 163.215C1035.54 170.363 1057.31 186.199 1074.78 204.505C1093.47 224.09 1101.8 245.331 1103.8 244.662C1105.81 243.994 1139.82 190.848 1135.82 129.915C1131.81 68.982 1097.04 33.5031 1048.86 13.4245C1000.71 -6.65405 956.064 8.57197 935.282 32.2246C921.727 47.625 900.683 117.246 966.6 128.608C1023.23 138.371 1056.03 104.577 1056.23 82.4066C1056.38 64.885 1041.52 57.6206 1041.52 57.6206C1041.52 57.6206 1065.55 66.9481 1060.24 99.8119C1054.92 132.676 1014.75 149.354 992.027 149.354C969.3 149.354 930.696 144.066 921.117 98.4752C911.51 52.681 933.163 21.2991 968.603 5.98587C1004.04 -9.32731 1069.82 -6.79933 1114.49 36.496C1155.96 76.6822 1163.92 121.692 1161.45 168.329C1159.39 207.295 1146.12 259.511 1146.12 259.511C1146.12 259.511 1157.85 237.049 1185.95 218.307C1214.04 199.565 1287.48 170.276 1332.79 144.357C1372.49 121.634 1414.64 72.7595 1418.03 42.2203C1421.6 10.2573 1397.98 -7.32231 1389.27 -12.6689C1380.56 -18.0154 1370.55 -20.7178 1370.55 -20.7178C1370.55 -20.7178 1431.5 -12.5236 1418.06 62.9672C1406.51 127.823 1311.92 177.569 1266.2 198.897C1226.03 217.61 1193.29 240.42 1167.89 279.241C1142.47 318.061 1147.84 363.594 1147.84 382.365C1147.84 401.136 1149.17 450.649 1151.17 472.762C1153.18 494.846 1147.17 563.159 1147.17 563.159C1147.17 563.159 1163.22 527.68 1201.33 504.899C1239.44 482.148 1290.96 464.045 1338.45 436.615C1385.93 409.156 1406.66 382.394 1407.99 353.598C1409.33 324.802 1395.95 313.412 1390.61 309.402C1385.26 305.392 1375.89 300.016 1375.89 300.016C1375.89 300.016 1418.03 310.739 1413.33 381.697C1408.66 452.683 1334.41 472.094 1285.59 496.182C1236.77 520.3 1197.06 539.652 1167.86 589.253C1149.14 621.07 1147.81 741.6 1149.14 761.01C1150.48 780.42 1152.68 871.108 1193.87 871.108" stroke="white" stroke-linecap="round" stroke-linejoin="round"></path> <path d="M1085.11 410.813C1085.11 410.813 1082.91 387.742 1074.69 375.916C1069.09 367.838 1064.71 360.283 1058.96 355.924C1046.83 346.771 1042.33 340.408 1039.46 330.528C1034.9 314.895 1043.23 298.478 1043.23 298.478C1043.23 298.478 1042.77 309.549 1049.04 316.61C1055.3 323.671 1057.45 326.838 1059.4 334.858C1060.96 341.367 1061.02 350.403 1061.02 353.164C1061.02 355.924 1077.63 373.504 1081.95 389.108C1086.27 404.711 1085.14 410.784 1085.14 410.784L1085.11 410.813Z" stroke="white" stroke-linecap="round" stroke-linejoin="round"></path> <path d="M1016.12 414.648C1016.12 414.648 1031.07 426.619 1035.77 440.741C1041.4 457.682 1036.61 471.338 1036.61 471.338C1036.61 471.338 1041.51 483.746 1044.94 491.882C1048.36 500.018 1057.16 511.554 1061.63 515.854C1066.1 520.155 1077.16 532.126 1077.16 532.126V536.398C1077.16 536.398 1055.24 510.682 1048.8 501.093C1041.75 490.603 1034.49 471.338 1034.49 471.338C1034.49 471.338 1024.88 467.27 1020.41 450.65C1017.22 438.823 1021.05 425.108 1016.12 414.619V414.648Z" stroke="white" stroke-linecap="round" stroke-linejoin="round"></path> <path d="M1149.26 414.647C1149.26 414.647 1151.09 391.576 1157.82 379.75C1162.44 371.672 1168.3 362.838 1173.03 358.48C1183.02 349.327 1185.74 344.474 1186.82 334.362C1188.65 317.16 1175.82 302.312 1175.82 302.312C1175.82 302.312 1181.04 311 1178.69 319.136C1176.34 327.272 1169.63 331.515 1168.3 341.568C1167.43 348.135 1169.11 354.237 1169.11 356.998C1169.11 359.758 1155.47 377.338 1151.9 392.942C1148.3 408.691 1149.29 414.618 1149.29 414.618L1149.26 414.647Z" stroke="white" stroke-linecap="round" stroke-linejoin="round"></path> <path d="M1135.01 117.278C1123.84 137.211 1110.66 158.103 1104.94 180.477C1099.89 200.178 1102.01 222.378 1105.72 242.195" stroke="white" stroke-linecap="round" stroke-linejoin="round"></path> <path d="M1141.62 70.7839C1164.58 34.2589 1185.69 -29.3475 1144.56 -61.4849C1128.68 -73.8923 1105.37 -82.0574 1085.23 -77.5826C1063.05 -72.6719 1051.96 -50.0653 1061.75 -29.3765C1071.53 -8.68773 1108.85 -3.54463 1112.83 -31.3234C1110.39 -4.47447 1074.89 7.14841 1058.96 -15.8359C1043.72 -36.5828 1052.43 -62.7343 1072.75 -74.3572C1122.09 -97.603 1174.34 -51.1114 1177.24 -1.71402C1180.14 30.249 1167.95 64.4784 1151 90.2232" stroke="white" stroke-linecap="round" stroke-linejoin="round"></path> <path d="M1079.77 210.055C1074.6 163.97 1103.63 125.818 1128.51 90.1934" stroke="white" stroke-linecap="round" stroke-linejoin="round"></path> <path d="M952.583 156.589C952.583 156.589 896.912 160.483 872.966 137.411C849.02 114.34 864.897 84.6724 864.897 84.6724C864.897 84.6724 848.44 114.63 858.308 134.128C867.596 152.463 891.833 155.892 901.701 157.141C911.57 158.391 952.583 156.589 952.583 156.589Z" stroke="white" stroke-linecap="round" stroke-linejoin="round"></path> <path d="M875.924 175.159C875.924 175.159 833.431 196.167 806.205 169.492C783.304 147.06 802.925 121.141 802.925 121.141C802.925 121.141 783.158 132.619 790.066 159.293C798.165 190.646 845.157 187.769 858.306 182.365C863.356 180.302 875.953 175.129 875.953 175.129L875.924 175.159Z" stroke="white" stroke-linecap="round" stroke-linejoin="round"></path> <path d="M833.316 212.875C833.316 212.875 808.383 241.003 786.208 229.932C764.003 218.832 768.473 193.174 768.473 193.174C768.473 193.174 760.404 216.623 771.753 229.728C783.973 243.821 803.797 240.276 812.998 234.087C819.152 229.961 833.316 212.875 833.316 212.875Z" stroke="white" stroke-linecap="round" stroke-linejoin="round"></path> <path d="M1212.19 203.519C1212.19 203.519 1215 1.30898 1217.32 -97.9507" stroke="white" stroke-linecap="round" stroke-linejoin="round"></path> <path d="M1202.81 503.913L1212.19 230.919" stroke="white" stroke-linecap="round" stroke-linejoin="round"></path> <path d="M1359.58 1038.51C1359.58 1059.84 1324.02 1066.98 1300.8 1066.98C1260.16 1069.89 1185.83 1063.76 1188.04 1043.22C1194.86 873.637 1197.7 715.565 1202.96 547.672" stroke="white" stroke-linecap="round" stroke-linejoin="round"></path> <path d="M1358.24 461.315C1358.24 513.763 1358.71 848.532 1359.58 1038.51" stroke="white" stroke-linecap="round" stroke-linejoin="round"></path> <path d="M1358.21 144.677V424.033" stroke="white" stroke-linecap="round" stroke-linejoin="round"></path> <path d="M1357.14 -106.291C1357.2 -33.5897 1357.14 52.7686 1356.91 127.533" stroke="white" stroke-linecap="round" stroke-linejoin="round"></path> <path d="M1004.77 319.166C1004.77 319.166 992.9 324.628 987.443 335.554C981.986 346.479 983.699 359.584 983.699 359.584C983.699 359.584 974.381 379.982 974.585 400.264C974.904 431.123 992.377 459.745 992.377 459.745C992.377 459.745 974.701 439.346 947.91 442.833C925.067 445.826 921.352 466.166 924.864 476.336C930.059 491.33 948.81 497.868 948.81 497.868C948.81 497.868 937.606 489.063 935.603 474.39C933.775 460.936 940.305 446.407 957.895 446.088C970.231 445.855 982.828 452.335 991.39 464.423C999.953 476.511 1013.57 493.19 1017.46 497.083C1021.34 500.977 1035.77 519.603 1035.77 519.603C1035.77 519.603 1018.41 503.563 987.791 513.443C963.671 521.201 961.871 546.742 965.326 558.975C969.447 573.504 983.35 582.018 992.29 582.744C1007.38 583.993 1016.76 576.816 1016.76 576.816C1016.76 576.816 1000.42 582.076 985.614 567.663C970.811 553.251 974.991 531.778 982.828 522.944C993.074 511.438 1017.89 510.856 1032.32 520.591C1046.74 530.325 1063.08 562.317 1069.73 587.684C1076.35 613.051 1086.27 680.057 1085.4 779.578C1084.53 879.099 1074.26 945.989 1070.83 959.733C1067.41 973.477 1060.91 994.427 1048.25 1005.96C1037.16 1016.05 1021.03 1007.36 1009.91 1018.52C998.792 1029.67 997.167 1049.81 980.883 1067.83C964.6 1085.84 940.741 1106.15 852.358 1114.14C813.145 1117.69 772.189 1118.85 744.702 1119.2L743.744 1119.29H696.288L695.33 1119.2C667.814 1118.85 626.888 1117.69 587.674 1114.14C499.262 1106.15 475.432 1085.84 459.149 1067.83C442.866 1049.81 441.269 1029.67 430.123 1018.52C418.977 1007.36 402.868 1016.05 391.781 1005.96C379.096 994.427 372.624 973.448 369.199 959.733C365.774 946.018 355.499 879.099 354.628 779.578C353.757 680.057 363.684 613.051 370.302 587.684C376.919 562.317 393.29 530.354 407.716 520.591C422.141 510.827 446.958 511.408 457.204 522.944C465.07 531.778 469.221 553.222 454.418 567.663C439.615 582.105 423.273 576.816 423.273 576.816C423.273 576.816 432.678 583.993 447.742 582.744C456.682 582.018 470.585 573.504 474.707 558.975C478.161 546.771 476.361 521.23 452.241 513.443C421.59 503.563 404.262 519.603 404.262 519.603C404.262 519.603 418.687 500.977 422.577 497.083C426.466 493.19 440.079 476.511 448.642 464.423C457.204 452.335 469.801 445.855 482.137 446.088C499.727 446.436 506.257 460.936 504.429 474.39C502.426 489.093 491.222 497.868 491.222 497.868C491.222 497.868 509.973 491.33 515.168 476.336C518.68 466.166 514.965 445.826 492.122 442.833C465.331 439.317 447.655 459.745 447.655 459.745C447.655 459.745 465.128 431.123 465.447 400.264C465.651 379.982 456.333 359.584 456.333 359.584C456.333 359.584 458.046 346.479 452.589 335.554C447.132 324.628 435.261 319.166 435.261 319.166" stroke="white" stroke-linecap="round" stroke-linejoin="round"></path> </g> </g> <defs> <clipPath id="clip0_1199_1266"> <rect width="1440" height="800" fill="white"></rect> </clipPath> </defs> </svg> 