<?xml version="1.0" encoding="UTF-8"?> <svg xmlns="http://www.w3.org/2000/svg" width="851" height="950" viewBox="0 0 851 950" fill="none"> <path d="M639.311 92.6741C640.38 108.973 643.776 124.997 643.429 141.101C639.52 142.524 637.49 141.513 635.771 138.724C632.96 134.158 629.543 129.946 626.877 125.301C624.63 121.392 623.12 117.072 621.176 112.983C620.728 112.036 619.847 111.292 618.452 109.565C618.062 111.957 617.614 113.207 617.694 114.42C618.127 120.886 619.204 127.107 625.266 131.037C625.663 131.29 626.017 131.658 626.291 132.041C628.358 134.924 630.424 137.799 632.44 140.718C634.976 144.388 637.505 148.051 636.609 152.949C636.457 153.773 636.905 154.857 637.389 155.623C639.123 158.368 641.095 160.962 642.786 163.729C646.146 169.227 649.389 174.804 652.662 180.353C653.818 182.303 654.823 184.348 656.087 186.226C657.915 188.957 658.023 191.652 656.802 194.679C656.022 196.615 655.603 198.768 655.408 200.856C655.256 202.424 656.029 203.248 657.872 204.035C660.039 204.967 661.824 207.366 663.138 209.511C664.15 211.159 664.959 211.917 666.946 211.924C669.836 211.939 672.032 213.138 672.097 216.555C672.126 217.993 671.946 219.604 672.516 220.825C673.347 222.603 674.431 224.792 676.013 225.579C679.814 227.479 680.811 228.592 678.73 232.327C675.833 237.529 676.107 242.059 679.994 246.545C680.579 247.217 680.572 248.539 680.565 249.558C680.514 254.536 681.186 258.769 686.237 261.76C688.895 263.335 692.464 265.033 692.977 269.216C693.086 270.076 695.651 270.437 696.142 271.477C697.457 274.244 698.541 277.192 699.184 280.183C699.957 283.81 699.617 287.755 700.816 291.194C701.842 294.127 704.212 296.67 706.271 299.148C707.991 301.207 710.743 302.601 711.928 304.87C713.756 308.367 716.336 310.202 719.977 310.743C724.622 311.43 727.794 313.865 730.186 317.874C731.761 320.511 733.863 322.881 735.987 325.128C736.652 325.829 738.191 326.053 739.267 325.937C741.652 325.684 742.547 326.761 743.479 328.834C744.563 331.247 746.377 333.349 747.995 335.488C748.927 336.716 750.307 337.634 751.167 338.898C753.544 342.402 755.292 346.058 751.687 350.205C752.85 351.086 754.013 351.736 754.873 352.661C756.773 354.72 758.905 356.7 760.256 359.098C762.813 363.643 767.567 366.222 772.589 365.087C773.506 364.878 774.93 364.603 775.153 364.004C776.562 360.182 779.958 361.244 782.646 360.861C784.885 360.543 787.212 360.839 789.502 360.782C792.638 360.702 795.166 359.409 798.006 357.949C801.915 355.941 806.914 355.898 811.495 355.428C814.334 355.132 817.26 355.797 820.136 355.695C824.153 355.551 827.823 354.763 831.349 352.141C834.622 349.706 838.856 348.485 842.779 347.019C845.358 346.058 846.897 347.459 847.294 350.067C847.439 351.014 847.432 351.989 847.388 352.95C847.157 357.913 847.027 362.848 850.878 367.479C848.746 368.685 846.984 369.675 844.729 370.954C844.419 373.056 844.043 375.874 843.581 378.677C842.656 384.233 839.296 388.336 835.966 392.693C831.84 398.083 829.492 404.729 824.153 409.389C823.163 410.256 823.914 412.893 823.387 414.562C822.289 418.008 821.371 421.664 819.493 424.677C815.635 430.868 811.516 436.958 806.9 442.594C802.81 447.593 797.883 451.906 793.353 456.552C789.943 460.049 786.684 463.704 783.137 467.042C781.063 468.993 778.751 470.943 776.187 472.092C763.789 477.648 755.69 488.21 746.377 497.335C742.54 501.092 739.484 505.398 736.681 510.13C734.629 513.591 731.999 518.178 726.906 519.226C726.328 519.349 725.511 520.338 725.511 520.931C725.511 524.102 723.286 524.543 720.967 525.547C718.987 526.4 717.159 528.199 715.909 530.019C713.93 532.902 712.629 536.24 710.801 539.238C708.309 543.32 704.487 546.954 703.251 551.339C701.785 556.534 700.6 561.57 697.356 566.02C696.886 566.663 697.768 568.78 698.577 569.741C699.957 571.373 701.748 572.674 703.432 574.032C707.153 577.016 708.475 581.943 706.25 586.321C703.092 592.535 704.19 598.134 707.731 603.776C708.692 605.308 709.096 607.461 709.038 609.303C708.916 613.103 710.418 615.784 713.691 617.416C716.588 618.861 717.282 621.13 717.311 624.164C717.361 629.207 717.809 634.243 718.098 639.285C718.127 639.762 718.041 640.34 718.272 640.709C721.667 646.264 719.384 651.813 718.452 657.427C717.78 661.508 717.058 665.648 720.389 669.376C721.364 670.467 721.126 673.147 720.663 674.896C719.847 678.002 718.445 680.95 717.275 683.955C717.145 684.288 716.718 684.642 716.791 684.887C718.929 692.56 711.134 695.544 708.684 701.1C706.459 706.135 699.942 709.148 693.736 709.061C689.047 708.996 686.302 710.867 683.144 714.082C676.671 720.678 669.359 726.458 662.532 732.715C657.843 737.013 653.233 741.421 648.84 746.015C645.842 749.151 646.29 751.752 649.469 754.627C653.089 757.907 655.466 761.368 655.458 766.953C655.444 777.753 656.759 788.547 657.315 799.362C657.395 800.901 656.752 803.061 655.654 803.957C651.889 807.042 647.829 809.296 642.815 810.604C635.865 812.417 629.297 815.892 622.809 819.144C620.15 820.48 620.432 823.002 623.228 824.302C626.934 826.014 627.527 828.247 626.479 832.09C624.427 839.625 623.026 847.341 621.241 854.956C620.75 857.051 619.999 859.11 619.117 861.075C618.655 862.101 617.824 863.438 616.892 863.705C609.869 865.728 604.754 870.244 600.773 876.06C599.422 878.039 598.215 880.755 598.389 883.024C598.837 888.927 595.528 893.023 592.067 896.614C579.72 909.423 567.011 921.886 554.324 934.363C553.356 935.316 551.564 935.497 550.105 935.858C543.299 937.556 536.298 938.676 529.716 941.002C524.724 942.765 519.97 942.967 515.375 941.19C512.477 940.07 510.165 940.424 507.442 941.067C505.476 941.537 503.266 941.501 501.257 941.132C497.529 940.453 493.938 939.384 491.41 943.603C491.019 944.253 489.56 944.463 488.57 944.52C482.061 944.896 475.76 945.756 469.771 948.819C464.786 951.369 459.331 949.599 455.769 945.33C450.914 939.521 445.813 933.9 441.095 927.983C437.981 924.082 438.422 919.559 441.673 915.86C444.086 913.115 444.274 908.267 442.425 904.958C436.32 894.063 430.316 883.118 424.297 872.173C423.842 871.342 423.264 870.381 423.315 869.507C423.654 862.947 419.009 859.587 414.826 855.888C413.944 855.108 413.063 854.212 412.514 853.193C408.475 845.629 404.544 837.92 402.587 829.59C401.488 824.902 402.529 819.75 402.167 814.845C401.944 811.818 400.983 808.827 400.152 805.879C399.4 803.235 398.346 800.684 397.479 798.076C397.255 797.404 397.486 796.407 397.074 795.988C393.461 792.289 395.297 788.482 396.705 784.667C398.736 779.155 395.759 770.659 390.824 767.364C389.69 766.606 388.599 765.406 388.093 764.164C386.793 760.963 385.276 757.69 384.828 754.324C383.368 743.277 377.285 734.752 370.53 726.516C369.923 725.779 369.229 724.905 368.398 724.601C363.586 722.846 363.146 719.118 363.42 714.74C363.68 710.665 363.384 706.554 363.5 702.465C363.666 696.469 365.133 690.819 368.492 685.747C372.748 679.332 373.68 672.172 373.066 664.687C373.058 664.564 373.037 664.449 373.022 664.326C372.618 660.194 372.047 656.357 376.223 653.15C379.944 650.296 382.566 646.062 386.063 642.854C390.723 638.585 390.68 633.108 389.863 627.841C389.488 625.407 386.526 623.398 384.828 621.13C384.163 620.241 383.426 619.208 383.274 618.16C382.79 614.801 381.887 612.005 378.39 610.408C375.862 609.26 375.775 606.037 377.899 604.289C379.199 603.22 380.486 602.086 381.923 601.233C384.958 599.434 384.683 597.101 383.267 594.485C383.151 594.276 382.942 594.102 382.877 593.878C380.486 585.592 374.012 579.776 369.995 572.5C368.832 570.398 368.427 567.429 368.788 565.023C369.72 558.911 369.128 553.796 363.558 549.887C360.444 547.705 358.081 544.751 357.019 540.705C356.542 538.891 354.404 536.803 352.561 536.189C344.766 533.56 339.65 527.491 333.986 522.224C328.9 517.492 330.475 511.033 331.212 505.152C331.84 500.138 331.472 494.871 334.867 490.349C335.908 488.969 335.424 486.382 335.496 484.345C335.633 480.133 335.691 475.928 335.742 471.716C335.771 469.397 335.864 467.215 338.14 465.705C338.769 465.286 339.202 463.979 339.094 463.162C338.458 458.343 337.844 453.503 336.76 448.771C336.45 447.398 334.687 446.307 333.473 445.209C332.772 444.573 331.501 444.393 331.089 443.663C328.473 439.075 324.16 439.747 319.977 439.762C311.083 439.805 302.182 439.762 293.288 439.776C288.44 439.783 283.896 436.431 282.588 431.771C282.097 430.037 281.707 428.274 281.23 426.54C279.64 420.754 275.782 417.741 269.706 417.77C265.342 417.784 261.188 417.495 257.113 415.422C255.755 414.728 253.255 416.036 251.369 416.686C249.447 417.351 247.699 418.788 245.755 419.085C242.215 419.634 238.588 419.59 234.925 419.793C233.459 426.317 227.801 424.799 223.734 425.493C219.854 426.158 216.502 426.728 214.37 430.42C213.893 431.251 212.687 432.046 211.74 432.154C204.646 432.949 197.623 435.485 190.405 433.693C188.642 433.252 186.598 431.981 185.702 430.478C184.38 428.267 182.877 427.906 180.536 427.646C170.4 426.54 160.993 429.459 151.723 432.718C145.864 434.784 140.264 437.659 134.694 440.462C131.125 442.261 127.657 442.175 124.514 440.224C109.718 431.049 94.8848 421.924 80.3771 412.308C69.9805 405.416 61.0072 396.999 55.5812 385.324C54.0423 382.022 51.3475 379.262 49.2017 376.242C48.3058 374.985 47.2437 373.786 46.644 372.392C44.3104 366.951 40.763 362.624 36.009 359.048C34.1016 357.61 32.8155 355.19 31.5945 353.022C29.3476 349.041 27.0284 345.501 21.7325 345.227C19.3339 345.104 17.5132 343.601 17.3759 340.798C17.347 340.227 17.1519 339.62 16.8846 339.115C14.6377 334.881 14.1103 330.575 16.2199 326.118C16.4728 325.59 16.8124 324.702 16.5812 324.405C13.1999 320.136 9.94148 315.729 6.15562 311.842C4.84069 310.491 2.16025 310.476 0 309.811C0.361246 306.734 1.63283 305.166 4.73954 304.321C8.73492 303.237 12.5208 301.308 16.2705 299.48C17.1086 299.068 18.1273 297.284 17.8528 296.634C16.6823 293.823 18.1273 291.67 18.7992 289.156C20.078 284.366 20.6271 279.388 21.5736 274.505C22.1877 271.34 22.7223 268.118 23.7627 265.084C24.5502 262.772 24.0879 261.168 22.9969 259.073C21.747 256.674 21.2123 253.799 20.8439 251.068C20.2153 246.451 20.1936 241.741 19.3772 237.167C19.1316 235.802 17.1447 233.851 15.8442 233.765C13.3805 233.591 12.658 232.262 12.4052 230.47C11.9283 227.125 11.4298 223.737 11.5093 220.385C11.6032 216.498 11.8489 212.712 16.9135 211.137C19.016 210.48 20.6416 207.597 22.0215 205.437C24.6875 201.246 26.1181 196.579 26.5515 191.587C26.8983 187.621 29.0152 184.68 32.3243 182.484C36.6014 179.637 38.8845 175.729 40.1994 170.578C41.3843 165.911 43.3639 160.976 48.7104 158.823C49.7724 158.397 50.6394 157.111 51.2752 156.034C54.5264 150.565 57.7126 145.06 60.8265 139.512C62.7628 136.065 65.8623 134.823 69.5398 134.779C74.8356 134.729 78.7588 132.915 81.8944 128.227C84.2136 124.759 88.1006 122.36 91.1639 119.362C94.5813 116.017 97.977 112.636 101.163 109.074C103.013 107.008 103.114 104.689 101.264 102.24C96.626 96.0913 96.6332 91.6481 100.867 85.0881C101.907 83.477 103.114 81.8515 103.62 80.0525C105.831 72.2571 111.473 66.7447 116.155 60.5748C118.597 57.3526 122.036 56.1533 125.815 55.6693C134.629 54.5422 140.936 48.4013 142.511 39.8039C143.299 35.5052 144.614 31.286 145.864 27.0813C146.608 24.5815 152.453 23.8735 155.104 25.8675C158.074 28.1144 160.971 30.4696 163.998 32.6298C166.187 34.1976 168.521 34.7972 170.956 32.8538C171.556 32.3697 172.509 32.0735 173.29 32.1024C180.233 32.3914 187.19 32.5287 194.097 33.215C198.938 33.6918 200.238 33.2006 202.601 29.003C204.537 25.5569 207.969 23.7724 211.762 23.3317C216.979 22.7248 221.415 21.2582 225.721 17.8048C228.755 15.3701 233.451 14.6693 237.541 13.9829C244.036 12.8848 250.661 12.5236 257.207 11.671C258.695 11.476 260.451 10.9341 261.47 9.9299C265.739 5.72514 270.992 6.46928 276.064 6.90276C278.267 7.09061 280.363 8.47052 282.508 9.30135C286.33 10.7752 290.16 10.0599 293.216 7.89254C296.308 5.69624 298.887 3.8395 302.428 6.62823C302.601 6.7655 302.926 6.88109 303.107 6.81607C311.235 3.86118 320.331 8.36937 328.322 3.27598C331.154 1.46981 334.911 0.985759 338.321 0.263292C342.454 -0.610893 343.797 0.595627 344.751 5.33501C345.726 10.1539 347.749 10.898 351.34 7.66858C352.785 6.36814 354.714 4.35246 355.928 6.65712C356.853 8.41272 356.311 11.4977 355.386 13.5133C354.628 15.1606 352.229 15.9914 350.762 17.3858C347.33 20.6441 347.937 24.5165 352.099 26.6622C357.207 29.292 357.857 36.2855 352.792 38.7636C348.551 40.837 347.352 44.6806 345.466 48.1123C343.783 51.1828 347.2 56.5073 351.326 57.9812C352.344 58.3424 353.414 58.5519 354.454 58.8337C358.645 59.9824 359.309 61.0155 358.905 64.5918C361.838 66.2029 364.555 67.4383 366.975 69.0999C370.183 71.3035 375.659 71.5997 378.766 69.0277C381.237 66.9831 383.932 66.7664 386.526 67.8934C392.659 70.5593 398.721 73.4347 404.631 76.5486C406.127 77.3361 407.55 79.2 407.998 80.8473C409.97 88.1225 416.437 92.7102 423.611 91.8577C433.574 90.68 440.9 96.5176 448.725 101.084C450.473 102.102 452.222 103.273 454.129 103.858C457.236 104.819 460.328 104.819 462.495 101.698C462.561 101.597 462.647 101.51 462.741 101.438C468.507 97.0161 468.694 91.8793 465.436 85.6878C462.568 80.2332 463.883 77.2349 469.171 74.15C471.136 73.0013 472.87 71.4263 474.893 70.4076C482.342 66.6291 490.102 68.0813 497.825 69.3167C498.172 69.3745 498.562 69.519 498.808 69.7502C505.339 76.0718 514.175 77.6467 522.079 81.1579C523.553 81.8154 524.991 82.993 525.93 84.3007C528.076 87.2917 531.226 88.4187 534.326 86.7787C538.473 84.5969 542.389 83.4915 546.565 87.0749C547.959 88.2742 550.387 88.845 552.301 88.7655C559.035 88.5054 564.439 91.9299 570.226 94.4585C572.365 95.3905 574.749 95.8601 577.068 96.2575C577.863 96.3948 579.351 95.8963 579.59 95.3111C581.295 91.0991 585.319 91.0918 588.729 89.9359C589.517 89.6686 590.413 89.3579 590.94 88.7727C594.336 85.0159 598.866 84.7125 603.237 85.3699C607.579 86.0201 611.791 87.5951 614.681 91.4531C615.208 92.1539 616.531 92.5801 617.492 92.5946C624.651 92.6885 631.818 92.6451 639.354 92.6451L639.311 92.6741Z" fill="white"></path> <path d="M835.359 692.957C834.644 691.57 834.478 690.667 833.965 690.364C832.824 689.692 831.487 688.94 830.259 688.991C829.645 689.02 828.727 690.682 828.583 691.686C827.484 699.618 826.69 707.602 825.454 715.513C825.136 717.565 823.373 719.356 822.636 721.401C821.242 725.266 819.472 729.153 819.002 733.163C818.186 740.178 818.063 747.15 815.238 753.912C811.199 763.593 809.234 773.837 808.093 784.328C807.507 789.688 807.204 795.591 802.674 799.853C802.118 800.374 802.768 801.999 802.414 802.938C801.691 804.86 801.005 806.97 799.69 808.451C797.819 810.546 795.261 812.013 793.238 813.999C791.143 816.044 789.272 817.8 785.876 817.359C784.2 817.142 782.032 818.074 780.58 819.158C775.768 822.756 770.538 822.077 767.127 817.128C766.52 816.253 765.798 815.415 764.989 814.729C758.284 809.014 755.517 802.093 757.699 793.265C758.161 791.393 757.836 788.735 756.774 787.189C752.533 781.019 753.732 773.765 752.345 767.061C752.15 766.129 754.014 764.734 754.982 763.6C756.413 761.924 757.945 760.342 759.317 758.622C760.495 757.148 761.514 755.537 762.605 753.991C762.879 753.601 763.37 753.283 763.457 752.864C764.967 745.647 767.25 738.465 764.902 731.01C764.396 729.399 763.067 727.824 763.139 726.277C763.558 716.726 762.077 706.764 766.853 697.978C768.457 695.024 772.098 692.842 775.263 691.173C778.037 689.706 781.483 689.562 784.583 688.651C788.578 687.474 793.592 687.185 796.2 684.555C798.946 681.788 801.944 679.194 804.502 676.333C806.626 673.964 807.096 669.831 807.623 666.378C808.273 662.065 810.499 659.189 814.335 657.766C818.128 656.364 818.785 653.59 818.244 650.303C817.543 646.048 821.502 645.824 823.511 644.184C825.288 642.731 826.617 644.855 827.6 646.394C829.681 649.631 831.884 652.788 833.842 656.09C835.88 659.522 836.949 663.004 834.413 666.876C833.943 667.599 835.164 669.564 835.822 670.843C836.573 672.302 838.336 673.646 838.329 675.033C838.293 680.155 837.758 685.277 837.252 690.385C837.18 691.137 836.241 691.801 835.352 692.965L835.359 692.957Z" fill="white"></path> </svg> 