<?xml version="1.0" encoding="UTF-8"?> <svg xmlns="http://www.w3.org/2000/svg" width="1440" height="50" viewBox="0 0 1440 50" fill="none"> <g clip-path="url(#clip0_1025_1985)"> <path d="M562.955 91H593.299V60.6593H573.07V70.7802H583.184V80.8815H562.955V50.5605H633.754V80.8815H613.528V70.7802H623.642V60.6593H603.413V91H643.869H674.212V60.6593H653.983V70.7802H664.098V80.8815H643.869V50.5605H714.668V80.8815H694.441V70.7802H704.553V60.6593H684.327V91H724.782H755.126V60.6593H734.897V70.7802H745.011V80.8815H724.782V50.5605H795.581V80.8815H775.352V70.7802H785.467V60.6593H765.24V91H805.696H836.039V60.6593H815.81V70.7802H825.925V80.8815H805.696V50.5605H876.494V80.8815H856.266V70.7802H866.38V60.6593H846.151V91H886.609H916.95V60.6593H896.723V70.7802H906.838V80.8815H886.609V50.5605H957.408V80.8815H937.179V70.7802H947.293V60.6593H927.064V91H967.522H997.863V60.6593H977.637V70.7802H987.749V80.8815H967.522V50.5605H1038.32V80.8815H1018.09V70.7802H1028.21V60.6593H1007.98V91H1048.44H1078.78V60.6593H1058.55V70.7802H1068.66V80.8815H1048.44V50.5605H1119.23V80.8815H1099.01V70.7802H1109.12V60.6593H1088.89V91H1129.35H1159.69V60.6593H1139.46V70.7802H1149.58V80.8815H1129.35V50.5605H1200.15V80.8815H1179.92V70.7802H1190.03V60.6593H1169.8V91H1210.26H1240.6V60.6593H1220.37V70.7802H1230.49V80.8815H1210.26V50.5605H1281.06V80.8815H1260.83V70.7802H1270.94V60.6593H1250.72V91H1291.17H1321.52V60.6593H1301.29V70.7802H1311.4V80.8815H1291.17V50.5605H1361.97V80.8815H1341.74V70.7802H1351.86V60.6593H1331.63V91H1372.09H1402.43V60.6593H1382.2V70.7802H1392.32V80.8815H1372.09V50.5605H1442.89V80.8815H1422.66V70.7802H1432.77V60.6593H1412.54V91H1453V40.4395H1412.54V10.1209H1432.77V20.2198H1422.66V30.3407H1442.89V0H1372.09V30.3407H1392.32V20.2198H1382.2V10.1209H1402.43V40.4395H1372.09H1331.63V10.1209H1351.86V20.2198H1341.74V30.3407H1361.97V0H1291.17V30.3407H1311.4V20.2198H1301.29V10.1209H1321.52V40.4395H1291.17H1250.72V10.1209H1270.94V20.2198H1260.83V30.3407H1281.06V0H1210.26V30.3407H1230.49V20.2198H1220.37V10.1209H1240.6V40.4395H1210.26H1169.8V10.1209H1190.03V20.2198H1179.92V30.3407H1200.15V0H1129.35V30.3407H1149.58V20.2198H1139.46V10.1209H1159.69V40.4395H1129.35H1088.89V10.1209H1109.12V20.2198H1099.01V30.3407H1119.23V0H1048.44V30.3407H1068.66V20.2198H1058.55V10.1209H1078.78V40.4395H1048.44H1007.98V10.1209H1028.21V20.2198H1018.09V30.3407H1038.32V0H967.522V30.3407H987.749V20.2198H977.637V10.1209H997.863V40.4395H967.522H927.064V10.1209H947.293V20.2198H937.179V30.3407H957.408V0H886.609V30.3407H906.838V20.2198H896.723V10.1209H916.95V40.4395H886.609H846.151V10.1209H866.38V20.2198H856.266V30.3407H876.494V0H805.696V30.3407H825.925V20.2198H815.81V10.1209H836.039V40.4395H805.696H765.24V10.1209H785.467V20.2198H775.352V30.3407H795.581V0H724.782V30.3407H745.011V20.2198H734.897V10.1209H755.126V40.4395H724.782H684.327V10.1209H704.553V20.2198H694.441V30.3407H714.668V0H643.869V30.3407H664.098V20.2198H653.983V10.1209H674.212V40.4395H643.869H603.413V10.1209H623.642V20.2198H613.528V30.3407H633.754V0H562.955V30.3407H583.184V20.2198H573.07V10.1209H593.299V40.4395H562.955H522.5V10.1209H542.729V20.2198H532.615V30.3407H552.843V0H482.045V30.3407H502.271V20.2198H492.157V10.1209H512.386V40.4395H482.045H441.587V10.1209H461.816V20.2198H451.701V30.3407H471.93V0H401.131V30.3407H421.358V20.2198H411.246V10.1209H431.472V40.4395H401.131H360.673V10.1209H380.902V20.2198H370.788V30.3407H391.017V0H320.218V30.3407H340.447V20.2198H330.332V10.1209H350.559V40.4395H320.218H279.76V10.1209H299.989V20.2198H289.874V30.3407H310.103V0H239.304V30.3407H259.533V20.2198H249.419V10.1209H269.645V40.4395H239.304H198.849V10.1209H219.076V20.2198H208.961V30.3407H229.19V0H158.391V30.3407H178.62V20.2198H168.506V10.1209H188.734V40.4395H158.391H117.936V10.1209H138.162V20.2198H128.048V30.3407H148.277V0H77.4777V30.3407H97.7067V20.2198H87.5922V10.1209H107.821V40.4395H77.4777H37.0223V10.1209H57.2488V20.2198H47.1367V30.3407H67.3633V0H-3.43561V30.3407H16.7933V20.2198H6.67883V10.1209H26.9078V40.4395H-3.43561H-43.8911V10.1209H-23.6621V20.2198H-33.7766V30.3407H-13.5501V0H-84.349V30.3407H-64.12V20.2198H-74.2345V10.1209H-54.0056V40.4395H-84.349H-124.804V10.1209H-104.576V20.2198H-114.69V30.3407H-94.461V0H-165.26V30.3407H-145.033V20.2198H-155.148V10.1209H-134.919V40.4395H-165.26H-205.718V10.1209H-185.489V20.2198H-195.603V30.3407H-175.374V0H-246.173V30.3407H-225.947V20.2198H-236.059V10.1209H-215.832V40.4395H-246.173H-286.631V10.1209H-266.402V20.2198H-276.517V30.3407H-256.288V0H-327.087V30.3407H-306.858V20.2198H-316.972V10.1209H-296.746V40.4395H-327.087H-367.545V10.1209H-347.316V20.2198H-357.43V30.3407H-337.201V0H-408V30.3407H-387.771V20.2198H-397.886V10.1209H-377.657V40.4395H-408V50.5605H-337.201V80.8815H-357.43V70.7802H-347.316V60.6593H-367.545V91H-327.087H-296.746V60.6593H-316.972V70.7802H-306.858V80.8815H-327.087V50.5605H-256.288V80.8815H-276.517V70.7802H-266.402V60.6593H-286.631V91H-246.173H-215.832V60.6593H-236.059V70.7802H-225.947V80.8815H-246.173V50.5605H-175.374V80.8815H-195.603V70.7802H-185.489V60.6593H-205.718V91H-165.26H-134.919V60.6593H-155.148V70.7802H-145.033V80.8815H-165.26V50.5605H-94.461V80.8815H-114.69V70.7802H-104.576V60.6593H-124.804V91H-84.349H-54.0056V60.6593H-74.2345V70.7802H-64.12V80.8815H-84.349V50.5605H-13.5501V80.8815H-33.7766V70.7802H-23.6621V60.6593H-43.8911V91H-3.43561H26.9078V60.6593H6.67883V70.7802H16.7933V80.8815H-3.43561V50.5605H67.3633V80.8815H47.1367V70.7802H57.2488V60.6593H37.0223V91H77.4777H107.821V60.6593H87.5922V70.7802H97.7067V80.8815H77.4777V50.5605H148.277V80.8815H128.048V70.7802H138.162V60.6593H117.936V91H158.391H188.734V60.6593H168.506V70.7802H178.62V80.8815H158.391V50.5605H229.19V80.8815H208.961V70.7802H219.076V60.6593H198.849V91H239.304H269.645V60.6593H249.419V70.7802H259.533V80.8815H239.304V50.5605H310.103V80.8815H289.874V70.7802H299.989V60.6593H279.76V91H320.218H350.559V60.6593H330.332V70.7802H340.447V80.8815H320.218V50.5605H391.017V80.8815H370.788V70.7802H380.902V60.6593H360.673V91H401.131H431.472V60.6593H411.246V70.7802H421.358V80.8815H401.131V50.5605H471.93V80.8815H451.701V70.7802H461.816V60.6593H441.587V91H482.045H512.386V60.6593H492.157V70.7802H502.271V80.8815H482.045V50.5605H552.843V80.8815H532.615V70.7802H542.729V60.6593H522.5V91H562.955Z" fill="#202020"></path> </g> <defs> <clipPath id="clip0_1025_1985"> <rect width="2208" height="50" fill="white" transform="translate(-408)"></rect> </clipPath> </defs> </svg> 