<svg xmlns="http://www.w3.org/2000/svg" xmlns:xlink="http://www.w3.org/1999/xlink" version="1.1" x="0px" y="0px" viewBox="0 0 1000 1250" style="enable-background:new 0 0 1000 1000;" xml:space="preserve"><g><polygon points="396.2,500.4 357.1,461.3 337.5,480.9 357,500.4 247.8,609.6 247.8,609.6 141,502.8 138.6,500.4 138.6,500.4    138.6,500.4 247.8,391.3 306.7,450.2 326.3,430.6 247.8,352 99.4,500.4 99.4,500.4 99.4,500.4 247.8,648.9 247.8,648.9  "/><polygon points="306.7,539.6 326.3,520 306.8,500.4 416,391.3 474.9,450.2 494.5,430.6 416,352 267.6,500.4  "/><polygon points="525.3,461.3 505.6,480.9 525.2,500.4 416,609.6 357.1,550.7 337.5,570.3 416,648.9 564.4,500.4  "/><polygon points="474.9,539.6 494.5,520 475,500.4 584.2,391.3 643.1,450.2 662.7,430.6 584.2,352 435.8,500.4  "/><polygon points="693.4,461.3 673.8,480.9 693.3,500.4 584.2,609.6 525.3,550.7 505.6,570.3 584.2,648.9 732.6,500.4  "/><polygon points="900.8,500.4 900.8,500.4 900.8,500.4 870.4,470.1 752.3,352 752.3,352 752.3,352 603.9,500.4 643.1,539.6    662.7,520 643.2,500.4 752.3,391.3 861.5,500.4 861.5,500.4 752.3,609.6 693.4,550.7 673.8,570.3 752.3,648.9 900.8,500.4  "/></g><text x="0" y="1015" fill="#000000" font-size="5px" font-weight="bold" font-family="'Helvetica Neue', Helvetica, Arial-Unicode, Arial, Sans-serif">Created by Alvaro Cabrera</text><text x="0" y="1020" fill="#000000" font-size="5px" font-weight="bold" font-family="'Helvetica Neue', Helvetica, Arial-Unicode, Arial, Sans-serif">from the Noun Project</text></svg>